G75*
%MOIN*%
%OFA0B0*%
%FSLAX25Y25*%
%IPPOS*%
%LPD*%
%AMOC8*
5,1,8,0,0,1.08239X$1,22.5*
%
%ADD10C,0.01000*%
%ADD11C,0.00600*%
%ADD12C,0.00500*%
%ADD13C,0.00800*%
%ADD14R,0.08000X0.02000*%
D10*
X0001500Y0005400D02*
X0001500Y0110400D01*
X0086500Y0110400D01*
X0086500Y0005400D01*
X0001500Y0005400D01*
D11*
X0033500Y0089400D02*
X0033500Y0092400D01*
X0035000Y0090900D02*
X0032000Y0090900D01*
X0005500Y0095400D02*
X0005505Y0095793D01*
X0005519Y0096185D01*
X0005543Y0096577D01*
X0005577Y0096968D01*
X0005620Y0097359D01*
X0005673Y0097748D01*
X0005736Y0098135D01*
X0005807Y0098521D01*
X0005889Y0098906D01*
X0005979Y0099288D01*
X0006080Y0099667D01*
X0006189Y0100045D01*
X0006308Y0100419D01*
X0006435Y0100790D01*
X0006572Y0101158D01*
X0006718Y0101523D01*
X0006873Y0101884D01*
X0007036Y0102241D01*
X0007208Y0102594D01*
X0007389Y0102942D01*
X0007579Y0103286D01*
X0007776Y0103626D01*
X0007982Y0103960D01*
X0008196Y0104289D01*
X0008419Y0104613D01*
X0008649Y0104931D01*
X0008886Y0105244D01*
X0009132Y0105550D01*
X0009385Y0105851D01*
X0009645Y0106145D01*
X0009912Y0106433D01*
X0010186Y0106714D01*
X0010467Y0106988D01*
X0010755Y0107255D01*
X0011049Y0107515D01*
X0011350Y0107768D01*
X0011656Y0108014D01*
X0011969Y0108251D01*
X0012287Y0108481D01*
X0012611Y0108704D01*
X0012940Y0108918D01*
X0013274Y0109124D01*
X0013614Y0109321D01*
X0013958Y0109511D01*
X0014306Y0109692D01*
X0014659Y0109864D01*
X0015016Y0110027D01*
X0015377Y0110182D01*
X0015742Y0110328D01*
X0016110Y0110465D01*
X0016481Y0110592D01*
X0016855Y0110711D01*
X0017233Y0110820D01*
X0017612Y0110921D01*
X0017994Y0111011D01*
X0018379Y0111093D01*
X0018765Y0111164D01*
X0019152Y0111227D01*
X0019541Y0111280D01*
X0019932Y0111323D01*
X0020323Y0111357D01*
X0020715Y0111381D01*
X0021107Y0111395D01*
X0021500Y0111400D01*
X0021893Y0111395D01*
X0022285Y0111381D01*
X0022677Y0111357D01*
X0023068Y0111323D01*
X0023459Y0111280D01*
X0023848Y0111227D01*
X0024235Y0111164D01*
X0024621Y0111093D01*
X0025006Y0111011D01*
X0025388Y0110921D01*
X0025767Y0110820D01*
X0026145Y0110711D01*
X0026519Y0110592D01*
X0026890Y0110465D01*
X0027258Y0110328D01*
X0027623Y0110182D01*
X0027984Y0110027D01*
X0028341Y0109864D01*
X0028694Y0109692D01*
X0029042Y0109511D01*
X0029386Y0109321D01*
X0029726Y0109124D01*
X0030060Y0108918D01*
X0030389Y0108704D01*
X0030713Y0108481D01*
X0031031Y0108251D01*
X0031344Y0108014D01*
X0031650Y0107768D01*
X0031951Y0107515D01*
X0032245Y0107255D01*
X0032533Y0106988D01*
X0032814Y0106714D01*
X0033088Y0106433D01*
X0033355Y0106145D01*
X0033615Y0105851D01*
X0033868Y0105550D01*
X0034114Y0105244D01*
X0034351Y0104931D01*
X0034581Y0104613D01*
X0034804Y0104289D01*
X0035018Y0103960D01*
X0035224Y0103626D01*
X0035421Y0103286D01*
X0035611Y0102942D01*
X0035792Y0102594D01*
X0035964Y0102241D01*
X0036127Y0101884D01*
X0036282Y0101523D01*
X0036428Y0101158D01*
X0036565Y0100790D01*
X0036692Y0100419D01*
X0036811Y0100045D01*
X0036920Y0099667D01*
X0037021Y0099288D01*
X0037111Y0098906D01*
X0037193Y0098521D01*
X0037264Y0098135D01*
X0037327Y0097748D01*
X0037380Y0097359D01*
X0037423Y0096968D01*
X0037457Y0096577D01*
X0037481Y0096185D01*
X0037495Y0095793D01*
X0037500Y0095400D01*
X0037495Y0095007D01*
X0037481Y0094615D01*
X0037457Y0094223D01*
X0037423Y0093832D01*
X0037380Y0093441D01*
X0037327Y0093052D01*
X0037264Y0092665D01*
X0037193Y0092279D01*
X0037111Y0091894D01*
X0037021Y0091512D01*
X0036920Y0091133D01*
X0036811Y0090755D01*
X0036692Y0090381D01*
X0036565Y0090010D01*
X0036428Y0089642D01*
X0036282Y0089277D01*
X0036127Y0088916D01*
X0035964Y0088559D01*
X0035792Y0088206D01*
X0035611Y0087858D01*
X0035421Y0087514D01*
X0035224Y0087174D01*
X0035018Y0086840D01*
X0034804Y0086511D01*
X0034581Y0086187D01*
X0034351Y0085869D01*
X0034114Y0085556D01*
X0033868Y0085250D01*
X0033615Y0084949D01*
X0033355Y0084655D01*
X0033088Y0084367D01*
X0032814Y0084086D01*
X0032533Y0083812D01*
X0032245Y0083545D01*
X0031951Y0083285D01*
X0031650Y0083032D01*
X0031344Y0082786D01*
X0031031Y0082549D01*
X0030713Y0082319D01*
X0030389Y0082096D01*
X0030060Y0081882D01*
X0029726Y0081676D01*
X0029386Y0081479D01*
X0029042Y0081289D01*
X0028694Y0081108D01*
X0028341Y0080936D01*
X0027984Y0080773D01*
X0027623Y0080618D01*
X0027258Y0080472D01*
X0026890Y0080335D01*
X0026519Y0080208D01*
X0026145Y0080089D01*
X0025767Y0079980D01*
X0025388Y0079879D01*
X0025006Y0079789D01*
X0024621Y0079707D01*
X0024235Y0079636D01*
X0023848Y0079573D01*
X0023459Y0079520D01*
X0023068Y0079477D01*
X0022677Y0079443D01*
X0022285Y0079419D01*
X0021893Y0079405D01*
X0021500Y0079400D01*
X0021107Y0079405D01*
X0020715Y0079419D01*
X0020323Y0079443D01*
X0019932Y0079477D01*
X0019541Y0079520D01*
X0019152Y0079573D01*
X0018765Y0079636D01*
X0018379Y0079707D01*
X0017994Y0079789D01*
X0017612Y0079879D01*
X0017233Y0079980D01*
X0016855Y0080089D01*
X0016481Y0080208D01*
X0016110Y0080335D01*
X0015742Y0080472D01*
X0015377Y0080618D01*
X0015016Y0080773D01*
X0014659Y0080936D01*
X0014306Y0081108D01*
X0013958Y0081289D01*
X0013614Y0081479D01*
X0013274Y0081676D01*
X0012940Y0081882D01*
X0012611Y0082096D01*
X0012287Y0082319D01*
X0011969Y0082549D01*
X0011656Y0082786D01*
X0011350Y0083032D01*
X0011049Y0083285D01*
X0010755Y0083545D01*
X0010467Y0083812D01*
X0010186Y0084086D01*
X0009912Y0084367D01*
X0009645Y0084655D01*
X0009385Y0084949D01*
X0009132Y0085250D01*
X0008886Y0085556D01*
X0008649Y0085869D01*
X0008419Y0086187D01*
X0008196Y0086511D01*
X0007982Y0086840D01*
X0007776Y0087174D01*
X0007579Y0087514D01*
X0007389Y0087858D01*
X0007208Y0088206D01*
X0007036Y0088559D01*
X0006873Y0088916D01*
X0006718Y0089277D01*
X0006572Y0089642D01*
X0006435Y0090010D01*
X0006308Y0090381D01*
X0006189Y0090755D01*
X0006080Y0091133D01*
X0005979Y0091512D01*
X0005889Y0091894D01*
X0005807Y0092279D01*
X0005736Y0092665D01*
X0005673Y0093052D01*
X0005620Y0093441D01*
X0005577Y0093832D01*
X0005543Y0094223D01*
X0005519Y0094615D01*
X0005505Y0095007D01*
X0005500Y0095400D01*
X0043000Y0099900D02*
X0046000Y0099900D01*
X0044500Y0098400D02*
X0044500Y0101400D01*
X0040500Y0095400D02*
X0040505Y0095793D01*
X0040519Y0096185D01*
X0040543Y0096577D01*
X0040577Y0096968D01*
X0040620Y0097359D01*
X0040673Y0097748D01*
X0040736Y0098135D01*
X0040807Y0098521D01*
X0040889Y0098906D01*
X0040979Y0099288D01*
X0041080Y0099667D01*
X0041189Y0100045D01*
X0041308Y0100419D01*
X0041435Y0100790D01*
X0041572Y0101158D01*
X0041718Y0101523D01*
X0041873Y0101884D01*
X0042036Y0102241D01*
X0042208Y0102594D01*
X0042389Y0102942D01*
X0042579Y0103286D01*
X0042776Y0103626D01*
X0042982Y0103960D01*
X0043196Y0104289D01*
X0043419Y0104613D01*
X0043649Y0104931D01*
X0043886Y0105244D01*
X0044132Y0105550D01*
X0044385Y0105851D01*
X0044645Y0106145D01*
X0044912Y0106433D01*
X0045186Y0106714D01*
X0045467Y0106988D01*
X0045755Y0107255D01*
X0046049Y0107515D01*
X0046350Y0107768D01*
X0046656Y0108014D01*
X0046969Y0108251D01*
X0047287Y0108481D01*
X0047611Y0108704D01*
X0047940Y0108918D01*
X0048274Y0109124D01*
X0048614Y0109321D01*
X0048958Y0109511D01*
X0049306Y0109692D01*
X0049659Y0109864D01*
X0050016Y0110027D01*
X0050377Y0110182D01*
X0050742Y0110328D01*
X0051110Y0110465D01*
X0051481Y0110592D01*
X0051855Y0110711D01*
X0052233Y0110820D01*
X0052612Y0110921D01*
X0052994Y0111011D01*
X0053379Y0111093D01*
X0053765Y0111164D01*
X0054152Y0111227D01*
X0054541Y0111280D01*
X0054932Y0111323D01*
X0055323Y0111357D01*
X0055715Y0111381D01*
X0056107Y0111395D01*
X0056500Y0111400D01*
X0056893Y0111395D01*
X0057285Y0111381D01*
X0057677Y0111357D01*
X0058068Y0111323D01*
X0058459Y0111280D01*
X0058848Y0111227D01*
X0059235Y0111164D01*
X0059621Y0111093D01*
X0060006Y0111011D01*
X0060388Y0110921D01*
X0060767Y0110820D01*
X0061145Y0110711D01*
X0061519Y0110592D01*
X0061890Y0110465D01*
X0062258Y0110328D01*
X0062623Y0110182D01*
X0062984Y0110027D01*
X0063341Y0109864D01*
X0063694Y0109692D01*
X0064042Y0109511D01*
X0064386Y0109321D01*
X0064726Y0109124D01*
X0065060Y0108918D01*
X0065389Y0108704D01*
X0065713Y0108481D01*
X0066031Y0108251D01*
X0066344Y0108014D01*
X0066650Y0107768D01*
X0066951Y0107515D01*
X0067245Y0107255D01*
X0067533Y0106988D01*
X0067814Y0106714D01*
X0068088Y0106433D01*
X0068355Y0106145D01*
X0068615Y0105851D01*
X0068868Y0105550D01*
X0069114Y0105244D01*
X0069351Y0104931D01*
X0069581Y0104613D01*
X0069804Y0104289D01*
X0070018Y0103960D01*
X0070224Y0103626D01*
X0070421Y0103286D01*
X0070611Y0102942D01*
X0070792Y0102594D01*
X0070964Y0102241D01*
X0071127Y0101884D01*
X0071282Y0101523D01*
X0071428Y0101158D01*
X0071565Y0100790D01*
X0071692Y0100419D01*
X0071811Y0100045D01*
X0071920Y0099667D01*
X0072021Y0099288D01*
X0072111Y0098906D01*
X0072193Y0098521D01*
X0072264Y0098135D01*
X0072327Y0097748D01*
X0072380Y0097359D01*
X0072423Y0096968D01*
X0072457Y0096577D01*
X0072481Y0096185D01*
X0072495Y0095793D01*
X0072500Y0095400D01*
X0072495Y0095007D01*
X0072481Y0094615D01*
X0072457Y0094223D01*
X0072423Y0093832D01*
X0072380Y0093441D01*
X0072327Y0093052D01*
X0072264Y0092665D01*
X0072193Y0092279D01*
X0072111Y0091894D01*
X0072021Y0091512D01*
X0071920Y0091133D01*
X0071811Y0090755D01*
X0071692Y0090381D01*
X0071565Y0090010D01*
X0071428Y0089642D01*
X0071282Y0089277D01*
X0071127Y0088916D01*
X0070964Y0088559D01*
X0070792Y0088206D01*
X0070611Y0087858D01*
X0070421Y0087514D01*
X0070224Y0087174D01*
X0070018Y0086840D01*
X0069804Y0086511D01*
X0069581Y0086187D01*
X0069351Y0085869D01*
X0069114Y0085556D01*
X0068868Y0085250D01*
X0068615Y0084949D01*
X0068355Y0084655D01*
X0068088Y0084367D01*
X0067814Y0084086D01*
X0067533Y0083812D01*
X0067245Y0083545D01*
X0066951Y0083285D01*
X0066650Y0083032D01*
X0066344Y0082786D01*
X0066031Y0082549D01*
X0065713Y0082319D01*
X0065389Y0082096D01*
X0065060Y0081882D01*
X0064726Y0081676D01*
X0064386Y0081479D01*
X0064042Y0081289D01*
X0063694Y0081108D01*
X0063341Y0080936D01*
X0062984Y0080773D01*
X0062623Y0080618D01*
X0062258Y0080472D01*
X0061890Y0080335D01*
X0061519Y0080208D01*
X0061145Y0080089D01*
X0060767Y0079980D01*
X0060388Y0079879D01*
X0060006Y0079789D01*
X0059621Y0079707D01*
X0059235Y0079636D01*
X0058848Y0079573D01*
X0058459Y0079520D01*
X0058068Y0079477D01*
X0057677Y0079443D01*
X0057285Y0079419D01*
X0056893Y0079405D01*
X0056500Y0079400D01*
X0056107Y0079405D01*
X0055715Y0079419D01*
X0055323Y0079443D01*
X0054932Y0079477D01*
X0054541Y0079520D01*
X0054152Y0079573D01*
X0053765Y0079636D01*
X0053379Y0079707D01*
X0052994Y0079789D01*
X0052612Y0079879D01*
X0052233Y0079980D01*
X0051855Y0080089D01*
X0051481Y0080208D01*
X0051110Y0080335D01*
X0050742Y0080472D01*
X0050377Y0080618D01*
X0050016Y0080773D01*
X0049659Y0080936D01*
X0049306Y0081108D01*
X0048958Y0081289D01*
X0048614Y0081479D01*
X0048274Y0081676D01*
X0047940Y0081882D01*
X0047611Y0082096D01*
X0047287Y0082319D01*
X0046969Y0082549D01*
X0046656Y0082786D01*
X0046350Y0083032D01*
X0046049Y0083285D01*
X0045755Y0083545D01*
X0045467Y0083812D01*
X0045186Y0084086D01*
X0044912Y0084367D01*
X0044645Y0084655D01*
X0044385Y0084949D01*
X0044132Y0085250D01*
X0043886Y0085556D01*
X0043649Y0085869D01*
X0043419Y0086187D01*
X0043196Y0086511D01*
X0042982Y0086840D01*
X0042776Y0087174D01*
X0042579Y0087514D01*
X0042389Y0087858D01*
X0042208Y0088206D01*
X0042036Y0088559D01*
X0041873Y0088916D01*
X0041718Y0089277D01*
X0041572Y0089642D01*
X0041435Y0090010D01*
X0041308Y0090381D01*
X0041189Y0090755D01*
X0041080Y0091133D01*
X0040979Y0091512D01*
X0040889Y0091894D01*
X0040807Y0092279D01*
X0040736Y0092665D01*
X0040673Y0093052D01*
X0040620Y0093441D01*
X0040577Y0093832D01*
X0040543Y0094223D01*
X0040519Y0094615D01*
X0040505Y0095007D01*
X0040500Y0095400D01*
X0072500Y0079400D02*
X0072500Y0077400D01*
X0076500Y0077400D01*
X0080500Y0077400D01*
X0080500Y0079400D01*
X0072500Y0079400D01*
X0074000Y0076400D02*
X0074000Y0074400D01*
X0075000Y0075400D02*
X0073000Y0075400D01*
X0076500Y0074900D02*
X0076500Y0077400D01*
X0080891Y0073713D02*
X0081053Y0073822D01*
X0081213Y0073935D01*
X0081369Y0074052D01*
X0081523Y0074173D01*
X0081673Y0074298D01*
X0081821Y0074426D01*
X0081965Y0074558D01*
X0082107Y0074693D01*
X0082244Y0074832D01*
X0082379Y0074974D01*
X0082509Y0075119D01*
X0082637Y0075268D01*
X0082760Y0075419D01*
X0082880Y0075574D01*
X0082996Y0075731D01*
X0083108Y0075891D01*
X0083217Y0076054D01*
X0083321Y0076219D01*
X0083421Y0076387D01*
X0083517Y0076558D01*
X0083609Y0076730D01*
X0083696Y0076905D01*
X0083779Y0077082D01*
X0083858Y0077261D01*
X0083933Y0077442D01*
X0084003Y0077624D01*
X0084069Y0077808D01*
X0084130Y0077994D01*
X0084186Y0078181D01*
X0084238Y0078370D01*
X0084285Y0078559D01*
X0084328Y0078750D01*
X0084366Y0078942D01*
X0084399Y0079135D01*
X0084428Y0079328D01*
X0084452Y0079522D01*
X0084471Y0079717D01*
X0084485Y0079912D01*
X0084495Y0080107D01*
X0084499Y0080302D01*
X0084499Y0080498D01*
X0084495Y0080693D01*
X0084485Y0080888D01*
X0084471Y0081083D01*
X0084452Y0081278D01*
X0084428Y0081472D01*
X0084399Y0081665D01*
X0084366Y0081858D01*
X0084328Y0082050D01*
X0084285Y0082241D01*
X0084238Y0082430D01*
X0084186Y0082619D01*
X0084130Y0082806D01*
X0084069Y0082992D01*
X0084003Y0083176D01*
X0083933Y0083358D01*
X0083858Y0083539D01*
X0083779Y0083718D01*
X0083696Y0083895D01*
X0083609Y0084070D01*
X0083517Y0084242D01*
X0083421Y0084413D01*
X0083321Y0084581D01*
X0083217Y0084746D01*
X0083108Y0084909D01*
X0082996Y0085069D01*
X0082880Y0085226D01*
X0082760Y0085381D01*
X0082637Y0085532D01*
X0082509Y0085681D01*
X0082379Y0085826D01*
X0082244Y0085968D01*
X0082107Y0086107D01*
X0081965Y0086242D01*
X0081821Y0086374D01*
X0081673Y0086502D01*
X0081523Y0086627D01*
X0081369Y0086748D01*
X0081213Y0086865D01*
X0081053Y0086978D01*
X0080891Y0087087D01*
X0076500Y0085900D02*
X0076500Y0082900D01*
X0072109Y0087087D02*
X0071947Y0086978D01*
X0071787Y0086865D01*
X0071631Y0086748D01*
X0071477Y0086627D01*
X0071327Y0086502D01*
X0071179Y0086374D01*
X0071035Y0086242D01*
X0070893Y0086107D01*
X0070756Y0085968D01*
X0070621Y0085826D01*
X0070491Y0085681D01*
X0070363Y0085532D01*
X0070240Y0085381D01*
X0070120Y0085226D01*
X0070004Y0085069D01*
X0069892Y0084909D01*
X0069783Y0084746D01*
X0069679Y0084581D01*
X0069579Y0084413D01*
X0069483Y0084242D01*
X0069391Y0084070D01*
X0069304Y0083895D01*
X0069221Y0083718D01*
X0069142Y0083539D01*
X0069067Y0083358D01*
X0068997Y0083176D01*
X0068931Y0082992D01*
X0068870Y0082806D01*
X0068814Y0082619D01*
X0068762Y0082430D01*
X0068715Y0082241D01*
X0068672Y0082050D01*
X0068634Y0081858D01*
X0068601Y0081665D01*
X0068572Y0081472D01*
X0068548Y0081278D01*
X0068529Y0081083D01*
X0068515Y0080888D01*
X0068505Y0080693D01*
X0068501Y0080498D01*
X0068501Y0080302D01*
X0068505Y0080107D01*
X0068515Y0079912D01*
X0068529Y0079717D01*
X0068548Y0079522D01*
X0068572Y0079328D01*
X0068601Y0079135D01*
X0068634Y0078942D01*
X0068672Y0078750D01*
X0068715Y0078559D01*
X0068762Y0078370D01*
X0068814Y0078181D01*
X0068870Y0077994D01*
X0068931Y0077808D01*
X0068997Y0077624D01*
X0069067Y0077442D01*
X0069142Y0077261D01*
X0069221Y0077082D01*
X0069304Y0076905D01*
X0069391Y0076730D01*
X0069483Y0076558D01*
X0069579Y0076387D01*
X0069679Y0076219D01*
X0069783Y0076054D01*
X0069892Y0075891D01*
X0070004Y0075731D01*
X0070120Y0075574D01*
X0070240Y0075419D01*
X0070363Y0075268D01*
X0070491Y0075119D01*
X0070621Y0074974D01*
X0070756Y0074832D01*
X0070893Y0074693D01*
X0071035Y0074558D01*
X0071179Y0074426D01*
X0071327Y0074298D01*
X0071477Y0074173D01*
X0071631Y0074052D01*
X0071787Y0073935D01*
X0071947Y0073822D01*
X0072109Y0073713D01*
D12*
X0070250Y0089150D02*
X0067750Y0089150D01*
X0067690Y0089152D01*
X0067629Y0089157D01*
X0067570Y0089166D01*
X0067511Y0089179D01*
X0067452Y0089195D01*
X0067395Y0089215D01*
X0067340Y0089238D01*
X0067285Y0089265D01*
X0067233Y0089294D01*
X0067182Y0089327D01*
X0067133Y0089363D01*
X0067087Y0089401D01*
X0067043Y0089443D01*
X0067001Y0089487D01*
X0066963Y0089533D01*
X0066927Y0089582D01*
X0066894Y0089633D01*
X0066865Y0089685D01*
X0066838Y0089740D01*
X0066815Y0089795D01*
X0066795Y0089852D01*
X0066779Y0089911D01*
X0066766Y0089970D01*
X0066757Y0090029D01*
X0066752Y0090090D01*
X0066750Y0090150D01*
X0066750Y0091150D01*
X0066750Y0094165D02*
X0071250Y0095665D01*
X0070125Y0095290D02*
X0070125Y0093040D01*
X0071250Y0092665D02*
X0066750Y0094165D01*
X0066750Y0097640D02*
X0066750Y0098890D01*
X0066752Y0098959D01*
X0066758Y0099028D01*
X0066767Y0099096D01*
X0066780Y0099163D01*
X0066797Y0099230D01*
X0066818Y0099296D01*
X0066842Y0099360D01*
X0066870Y0099423D01*
X0066901Y0099485D01*
X0066935Y0099545D01*
X0066973Y0099602D01*
X0067014Y0099658D01*
X0067057Y0099711D01*
X0067104Y0099762D01*
X0067153Y0099810D01*
X0067205Y0099855D01*
X0067260Y0099897D01*
X0067316Y0099936D01*
X0067375Y0099973D01*
X0067436Y0100005D01*
X0067498Y0100035D01*
X0067562Y0100061D01*
X0067627Y0100083D01*
X0067693Y0100102D01*
X0067760Y0100117D01*
X0067828Y0100128D01*
X0067897Y0100136D01*
X0067966Y0100140D01*
X0068034Y0100140D01*
X0068103Y0100136D01*
X0068172Y0100128D01*
X0068240Y0100117D01*
X0068307Y0100102D01*
X0068373Y0100083D01*
X0068438Y0100061D01*
X0068502Y0100035D01*
X0068564Y0100005D01*
X0068625Y0099973D01*
X0068684Y0099936D01*
X0068740Y0099897D01*
X0068795Y0099855D01*
X0068847Y0099810D01*
X0068896Y0099762D01*
X0068943Y0099711D01*
X0068986Y0099658D01*
X0069027Y0099602D01*
X0069065Y0099545D01*
X0069099Y0099485D01*
X0069130Y0099423D01*
X0069158Y0099360D01*
X0069182Y0099296D01*
X0069203Y0099230D01*
X0069220Y0099163D01*
X0069233Y0099096D01*
X0069242Y0099028D01*
X0069248Y0098959D01*
X0069250Y0098890D01*
X0069250Y0097640D01*
X0071250Y0097640D02*
X0066750Y0097640D01*
X0071250Y0091150D02*
X0071250Y0090150D01*
X0071248Y0090090D01*
X0071243Y0090029D01*
X0071234Y0089970D01*
X0071221Y0089911D01*
X0071205Y0089852D01*
X0071185Y0089795D01*
X0071162Y0089740D01*
X0071135Y0089685D01*
X0071106Y0089633D01*
X0071073Y0089582D01*
X0071037Y0089533D01*
X0070999Y0089487D01*
X0070957Y0089443D01*
X0070913Y0089401D01*
X0070867Y0089363D01*
X0070818Y0089327D01*
X0070767Y0089294D01*
X0070715Y0089265D01*
X0070660Y0089238D01*
X0070605Y0089215D01*
X0070548Y0089195D01*
X0070489Y0089179D01*
X0070430Y0089166D01*
X0070371Y0089157D01*
X0070310Y0089152D01*
X0070250Y0089150D01*
X0071750Y0101715D02*
X0071750Y0103715D01*
X0071250Y0105665D02*
X0066750Y0105665D01*
X0068750Y0105665D02*
X0068750Y0108165D01*
X0066750Y0108165D02*
X0071250Y0108165D01*
X0071250Y0110065D02*
X0066750Y0111565D01*
X0071250Y0113065D01*
X0070125Y0112690D02*
X0070125Y0110440D01*
X0071250Y0114975D02*
X0071250Y0116975D01*
X0071250Y0118875D02*
X0071250Y0120875D01*
X0071250Y0118875D02*
X0066750Y0118875D01*
X0066750Y0114975D02*
X0071250Y0114975D01*
X0061575Y0056375D02*
X0061492Y0056337D01*
X0061407Y0056301D01*
X0061321Y0056270D01*
X0061233Y0056242D01*
X0061145Y0056218D01*
X0061056Y0056197D01*
X0060965Y0056180D01*
X0060875Y0056167D01*
X0060783Y0056158D01*
X0060692Y0056152D01*
X0060600Y0056150D01*
X0060600Y0057650D02*
X0060692Y0057648D01*
X0060783Y0057642D01*
X0060875Y0057633D01*
X0060965Y0057620D01*
X0061056Y0057603D01*
X0061145Y0057582D01*
X0061233Y0057558D01*
X0061321Y0057530D01*
X0061407Y0057499D01*
X0061492Y0057463D01*
X0061575Y0057425D01*
X0061618Y0057408D01*
X0061659Y0057388D01*
X0061698Y0057365D01*
X0061736Y0057338D01*
X0061771Y0057308D01*
X0061803Y0057276D01*
X0061833Y0057241D01*
X0061860Y0057204D01*
X0061883Y0057164D01*
X0061903Y0057123D01*
X0061920Y0057080D01*
X0061933Y0057036D01*
X0061942Y0056991D01*
X0061948Y0056946D01*
X0061950Y0056900D01*
X0061948Y0056854D01*
X0061942Y0056809D01*
X0061933Y0056764D01*
X0061920Y0056720D01*
X0061903Y0056677D01*
X0061883Y0056636D01*
X0061860Y0056596D01*
X0061833Y0056559D01*
X0061803Y0056524D01*
X0061771Y0056492D01*
X0061736Y0056462D01*
X0061698Y0056435D01*
X0061659Y0056412D01*
X0061618Y0056392D01*
X0061575Y0056375D01*
X0061350Y0056300D02*
X0059850Y0057500D01*
X0059625Y0057425D02*
X0059582Y0057408D01*
X0059541Y0057388D01*
X0059502Y0057365D01*
X0059464Y0057338D01*
X0059429Y0057308D01*
X0059397Y0057276D01*
X0059367Y0057241D01*
X0059340Y0057204D01*
X0059317Y0057164D01*
X0059297Y0057123D01*
X0059280Y0057080D01*
X0059267Y0057036D01*
X0059258Y0056991D01*
X0059252Y0056946D01*
X0059250Y0056900D01*
X0059252Y0056854D01*
X0059258Y0056809D01*
X0059267Y0056764D01*
X0059280Y0056720D01*
X0059297Y0056677D01*
X0059317Y0056636D01*
X0059340Y0056596D01*
X0059367Y0056559D01*
X0059397Y0056524D01*
X0059429Y0056492D01*
X0059464Y0056462D01*
X0059502Y0056435D01*
X0059541Y0056412D01*
X0059582Y0056392D01*
X0059625Y0056375D01*
X0059625Y0057425D02*
X0059708Y0057463D01*
X0059793Y0057499D01*
X0059879Y0057530D01*
X0059967Y0057558D01*
X0060055Y0057582D01*
X0060144Y0057603D01*
X0060235Y0057620D01*
X0060325Y0057633D01*
X0060417Y0057642D01*
X0060508Y0057648D01*
X0060600Y0057650D01*
X0060600Y0056150D02*
X0060508Y0056152D01*
X0060417Y0056158D01*
X0060325Y0056167D01*
X0060235Y0056180D01*
X0060144Y0056197D01*
X0060055Y0056218D01*
X0059967Y0056242D01*
X0059879Y0056270D01*
X0059793Y0056301D01*
X0059708Y0056337D01*
X0059625Y0056375D01*
X0059250Y0053758D02*
X0061950Y0053758D01*
X0061950Y0054958D01*
X0061950Y0052462D02*
X0061950Y0051262D01*
X0059250Y0051262D01*
X0059250Y0049028D02*
X0061950Y0049928D01*
X0061275Y0049703D02*
X0061275Y0048353D01*
X0061950Y0048128D02*
X0059250Y0049028D01*
X0059250Y0046802D02*
X0061950Y0046802D01*
X0061950Y0045302D02*
X0059250Y0045302D01*
X0060450Y0045302D02*
X0060450Y0046802D01*
X0061400Y0042410D02*
X0061492Y0042412D01*
X0061583Y0042418D01*
X0061675Y0042427D01*
X0061765Y0042440D01*
X0061856Y0042457D01*
X0061945Y0042478D01*
X0062033Y0042502D01*
X0062121Y0042530D01*
X0062207Y0042561D01*
X0062292Y0042597D01*
X0062375Y0042635D01*
X0062250Y0042764D02*
X0062250Y0043964D01*
X0062375Y0043685D02*
X0062418Y0043668D01*
X0062459Y0043648D01*
X0062498Y0043625D01*
X0062536Y0043598D01*
X0062571Y0043568D01*
X0062603Y0043536D01*
X0062633Y0043501D01*
X0062660Y0043464D01*
X0062683Y0043424D01*
X0062703Y0043383D01*
X0062720Y0043340D01*
X0062733Y0043296D01*
X0062742Y0043251D01*
X0062748Y0043206D01*
X0062750Y0043160D01*
X0062748Y0043114D01*
X0062742Y0043069D01*
X0062733Y0043024D01*
X0062720Y0042980D01*
X0062703Y0042937D01*
X0062683Y0042896D01*
X0062660Y0042856D01*
X0062633Y0042819D01*
X0062603Y0042784D01*
X0062571Y0042752D01*
X0062536Y0042722D01*
X0062498Y0042695D01*
X0062459Y0042672D01*
X0062418Y0042652D01*
X0062375Y0042635D01*
X0062150Y0042560D02*
X0060650Y0043760D01*
X0060425Y0043685D02*
X0060382Y0043668D01*
X0060341Y0043648D01*
X0060302Y0043625D01*
X0060264Y0043598D01*
X0060229Y0043568D01*
X0060197Y0043536D01*
X0060167Y0043501D01*
X0060140Y0043464D01*
X0060117Y0043424D01*
X0060097Y0043383D01*
X0060080Y0043340D01*
X0060067Y0043296D01*
X0060058Y0043251D01*
X0060052Y0043206D01*
X0060050Y0043160D01*
X0060052Y0043114D01*
X0060058Y0043069D01*
X0060067Y0043024D01*
X0060080Y0042980D01*
X0060097Y0042937D01*
X0060117Y0042896D01*
X0060140Y0042856D01*
X0060167Y0042819D01*
X0060197Y0042784D01*
X0060229Y0042752D01*
X0060264Y0042722D01*
X0060302Y0042695D01*
X0060341Y0042672D01*
X0060382Y0042652D01*
X0060425Y0042635D01*
X0061400Y0039530D02*
X0061492Y0039532D01*
X0061583Y0039538D01*
X0061675Y0039547D01*
X0061765Y0039560D01*
X0061856Y0039577D01*
X0061945Y0039598D01*
X0062033Y0039622D01*
X0062121Y0039650D01*
X0062207Y0039681D01*
X0062292Y0039717D01*
X0062375Y0039755D01*
X0062150Y0039680D02*
X0060650Y0040880D01*
X0060750Y0040949D02*
X0061950Y0041549D01*
X0062375Y0043685D02*
X0062292Y0043723D01*
X0062207Y0043759D01*
X0062121Y0043790D01*
X0062033Y0043818D01*
X0061945Y0043842D01*
X0061856Y0043863D01*
X0061765Y0043880D01*
X0061675Y0043893D01*
X0061583Y0043902D01*
X0061492Y0043908D01*
X0061400Y0043910D01*
X0061400Y0042410D02*
X0061308Y0042412D01*
X0061217Y0042418D01*
X0061125Y0042427D01*
X0061035Y0042440D01*
X0060944Y0042457D01*
X0060855Y0042478D01*
X0060767Y0042502D01*
X0060679Y0042530D01*
X0060593Y0042561D01*
X0060508Y0042597D01*
X0060425Y0042635D01*
X0060425Y0039755D02*
X0060508Y0039717D01*
X0060593Y0039681D01*
X0060679Y0039650D01*
X0060767Y0039622D01*
X0060855Y0039598D01*
X0060944Y0039577D01*
X0061035Y0039560D01*
X0061125Y0039547D01*
X0061217Y0039538D01*
X0061308Y0039532D01*
X0061400Y0039530D01*
X0061400Y0041030D02*
X0061492Y0041028D01*
X0061583Y0041022D01*
X0061675Y0041013D01*
X0061765Y0041000D01*
X0061856Y0040983D01*
X0061945Y0040962D01*
X0062033Y0040938D01*
X0062121Y0040910D01*
X0062207Y0040879D01*
X0062292Y0040843D01*
X0062375Y0040805D01*
X0062418Y0040788D01*
X0062459Y0040768D01*
X0062498Y0040745D01*
X0062536Y0040718D01*
X0062571Y0040688D01*
X0062603Y0040656D01*
X0062633Y0040621D01*
X0062660Y0040584D01*
X0062683Y0040544D01*
X0062703Y0040503D01*
X0062720Y0040460D01*
X0062733Y0040416D01*
X0062742Y0040371D01*
X0062748Y0040326D01*
X0062750Y0040280D01*
X0062748Y0040234D01*
X0062742Y0040189D01*
X0062733Y0040144D01*
X0062720Y0040100D01*
X0062703Y0040057D01*
X0062683Y0040016D01*
X0062660Y0039976D01*
X0062633Y0039939D01*
X0062603Y0039904D01*
X0062571Y0039872D01*
X0062536Y0039842D01*
X0062498Y0039815D01*
X0062459Y0039792D01*
X0062418Y0039772D01*
X0062375Y0039755D01*
X0061950Y0040049D02*
X0059250Y0040049D01*
X0059250Y0040799D01*
X0059252Y0040853D01*
X0059258Y0040906D01*
X0059267Y0040958D01*
X0059280Y0041010D01*
X0059297Y0041061D01*
X0059318Y0041111D01*
X0059342Y0041158D01*
X0059369Y0041204D01*
X0059400Y0041248D01*
X0059433Y0041290D01*
X0059470Y0041329D01*
X0059509Y0041366D01*
X0059551Y0041399D01*
X0059595Y0041430D01*
X0059641Y0041457D01*
X0059688Y0041481D01*
X0059738Y0041502D01*
X0059789Y0041519D01*
X0059841Y0041532D01*
X0059893Y0041541D01*
X0059946Y0041547D01*
X0060000Y0041549D01*
X0060054Y0041547D01*
X0060107Y0041541D01*
X0060159Y0041532D01*
X0060211Y0041519D01*
X0060262Y0041502D01*
X0060312Y0041481D01*
X0060359Y0041457D01*
X0060405Y0041430D01*
X0060449Y0041399D01*
X0060491Y0041366D01*
X0060530Y0041329D01*
X0060567Y0041290D01*
X0060600Y0041248D01*
X0060631Y0041204D01*
X0060658Y0041158D01*
X0060682Y0041111D01*
X0060703Y0041061D01*
X0060720Y0041010D01*
X0060733Y0040958D01*
X0060742Y0040906D01*
X0060748Y0040853D01*
X0060750Y0040799D01*
X0060750Y0040049D01*
X0060050Y0040280D02*
X0060052Y0040326D01*
X0060058Y0040371D01*
X0060067Y0040416D01*
X0060080Y0040460D01*
X0060097Y0040503D01*
X0060117Y0040544D01*
X0060140Y0040584D01*
X0060167Y0040621D01*
X0060197Y0040656D01*
X0060229Y0040688D01*
X0060264Y0040718D01*
X0060302Y0040745D01*
X0060341Y0040768D01*
X0060382Y0040788D01*
X0060425Y0040805D01*
X0060050Y0040280D02*
X0060052Y0040234D01*
X0060058Y0040189D01*
X0060067Y0040144D01*
X0060080Y0040100D01*
X0060097Y0040057D01*
X0060117Y0040016D01*
X0060140Y0039976D01*
X0060167Y0039939D01*
X0060197Y0039904D01*
X0060229Y0039872D01*
X0060264Y0039842D01*
X0060302Y0039815D01*
X0060341Y0039792D01*
X0060382Y0039772D01*
X0060425Y0039755D01*
X0060425Y0040805D02*
X0060508Y0040843D01*
X0060593Y0040879D01*
X0060679Y0040910D01*
X0060767Y0040938D01*
X0060855Y0040962D01*
X0060944Y0040983D01*
X0061035Y0041000D01*
X0061125Y0041013D01*
X0061217Y0041022D01*
X0061308Y0041028D01*
X0061400Y0041030D01*
X0060425Y0043685D02*
X0060508Y0043723D01*
X0060593Y0043759D01*
X0060679Y0043790D01*
X0060767Y0043818D01*
X0060855Y0043842D01*
X0060944Y0043863D01*
X0061035Y0043880D01*
X0061125Y0043893D01*
X0061217Y0043902D01*
X0061308Y0043908D01*
X0061400Y0043910D01*
X0061250Y0037550D02*
X0061250Y0036950D01*
X0061250Y0037550D02*
X0061248Y0037598D01*
X0061242Y0037646D01*
X0061233Y0037694D01*
X0061219Y0037740D01*
X0061202Y0037785D01*
X0061181Y0037829D01*
X0061157Y0037871D01*
X0061130Y0037910D01*
X0061099Y0037948D01*
X0061066Y0037983D01*
X0061029Y0038015D01*
X0060991Y0038044D01*
X0060950Y0038070D01*
X0060907Y0038092D01*
X0060863Y0038111D01*
X0060817Y0038126D01*
X0060770Y0038138D01*
X0060722Y0038146D01*
X0060674Y0038150D01*
X0060626Y0038150D01*
X0060578Y0038146D01*
X0060530Y0038138D01*
X0060483Y0038126D01*
X0060437Y0038111D01*
X0060393Y0038092D01*
X0060350Y0038070D01*
X0060309Y0038044D01*
X0060271Y0038015D01*
X0060234Y0037983D01*
X0060201Y0037948D01*
X0060170Y0037910D01*
X0060143Y0037871D01*
X0060119Y0037829D01*
X0060098Y0037785D01*
X0060081Y0037740D01*
X0060067Y0037694D01*
X0060058Y0037646D01*
X0060052Y0037598D01*
X0060050Y0037550D01*
X0060050Y0036650D01*
X0061250Y0037400D02*
X0061252Y0037454D01*
X0061258Y0037507D01*
X0061267Y0037559D01*
X0061280Y0037611D01*
X0061297Y0037662D01*
X0061318Y0037712D01*
X0061342Y0037759D01*
X0061369Y0037805D01*
X0061400Y0037849D01*
X0061433Y0037891D01*
X0061470Y0037930D01*
X0061509Y0037967D01*
X0061551Y0038000D01*
X0061595Y0038031D01*
X0061641Y0038058D01*
X0061688Y0038082D01*
X0061738Y0038103D01*
X0061789Y0038120D01*
X0061841Y0038133D01*
X0061893Y0038142D01*
X0061946Y0038148D01*
X0062000Y0038150D01*
X0062054Y0038148D01*
X0062107Y0038142D01*
X0062159Y0038133D01*
X0062211Y0038120D01*
X0062262Y0038103D01*
X0062312Y0038082D01*
X0062359Y0038058D01*
X0062405Y0038031D01*
X0062449Y0038000D01*
X0062491Y0037967D01*
X0062530Y0037930D01*
X0062567Y0037891D01*
X0062600Y0037849D01*
X0062631Y0037805D01*
X0062658Y0037759D01*
X0062682Y0037712D01*
X0062703Y0037662D01*
X0062720Y0037611D01*
X0062733Y0037559D01*
X0062742Y0037507D01*
X0062748Y0037454D01*
X0062750Y0037400D01*
X0062750Y0036650D01*
X0069050Y0025290D02*
X0069050Y0022790D01*
X0069050Y0024040D02*
X0064550Y0024040D01*
X0065550Y0022790D01*
X0065800Y0020640D02*
X0067800Y0020640D01*
X0067868Y0020638D01*
X0067935Y0020633D01*
X0068002Y0020624D01*
X0068069Y0020611D01*
X0068134Y0020594D01*
X0068199Y0020575D01*
X0068263Y0020551D01*
X0068325Y0020524D01*
X0068386Y0020494D01*
X0068444Y0020461D01*
X0068501Y0020425D01*
X0068556Y0020385D01*
X0068609Y0020343D01*
X0068660Y0020297D01*
X0068707Y0020250D01*
X0068753Y0020199D01*
X0068795Y0020146D01*
X0068835Y0020091D01*
X0068871Y0020034D01*
X0068904Y0019976D01*
X0068934Y0019915D01*
X0068961Y0019853D01*
X0068985Y0019789D01*
X0069004Y0019724D01*
X0069021Y0019659D01*
X0069034Y0019592D01*
X0069043Y0019525D01*
X0069048Y0019458D01*
X0069050Y0019390D01*
X0069050Y0018140D01*
X0064550Y0018140D01*
X0064550Y0019390D01*
X0064552Y0019458D01*
X0064557Y0019525D01*
X0064566Y0019592D01*
X0064579Y0019659D01*
X0064596Y0019724D01*
X0064615Y0019789D01*
X0064639Y0019853D01*
X0064666Y0019915D01*
X0064696Y0019976D01*
X0064729Y0020034D01*
X0064765Y0020091D01*
X0064805Y0020146D01*
X0064847Y0020199D01*
X0064893Y0020250D01*
X0064940Y0020297D01*
X0064991Y0020343D01*
X0065044Y0020385D01*
X0065099Y0020425D01*
X0065156Y0020461D01*
X0065214Y0020494D01*
X0065275Y0020524D01*
X0065337Y0020551D01*
X0065401Y0020575D01*
X0065466Y0020594D01*
X0065531Y0020611D01*
X0065598Y0020624D01*
X0065665Y0020633D01*
X0065732Y0020638D01*
X0065800Y0020640D01*
X0064550Y0016250D02*
X0064550Y0014250D01*
X0069050Y0014250D01*
X0069050Y0016250D01*
X0066550Y0015750D02*
X0066550Y0014250D01*
X0069050Y0012350D02*
X0069050Y0010350D01*
X0064550Y0010350D01*
X0064550Y0007950D02*
X0064550Y0003450D01*
X0066550Y0003450D01*
X0062650Y0003450D02*
X0060650Y0003450D01*
X0060650Y0007950D01*
X0058365Y0004575D02*
X0056115Y0004575D01*
X0055740Y0003450D02*
X0057240Y0007950D01*
X0058740Y0003450D01*
X0053840Y0003450D02*
X0053840Y0007950D01*
X0053840Y0005950D02*
X0051340Y0005950D01*
X0051340Y0007950D02*
X0051340Y0003450D01*
X0051050Y0033150D02*
X0051050Y0033900D01*
X0051052Y0033954D01*
X0051058Y0034007D01*
X0051067Y0034059D01*
X0051080Y0034111D01*
X0051097Y0034162D01*
X0051118Y0034212D01*
X0051142Y0034259D01*
X0051169Y0034305D01*
X0051200Y0034349D01*
X0051233Y0034391D01*
X0051270Y0034430D01*
X0051309Y0034467D01*
X0051351Y0034500D01*
X0051395Y0034531D01*
X0051441Y0034558D01*
X0051488Y0034582D01*
X0051538Y0034603D01*
X0051589Y0034620D01*
X0051641Y0034633D01*
X0051693Y0034642D01*
X0051746Y0034648D01*
X0051800Y0034650D01*
X0051854Y0034648D01*
X0051907Y0034642D01*
X0051959Y0034633D01*
X0052011Y0034620D01*
X0052062Y0034603D01*
X0052112Y0034582D01*
X0052159Y0034558D01*
X0052205Y0034531D01*
X0052249Y0034500D01*
X0052291Y0034467D01*
X0052330Y0034430D01*
X0052367Y0034391D01*
X0052400Y0034349D01*
X0052431Y0034305D01*
X0052458Y0034259D01*
X0052482Y0034212D01*
X0052503Y0034162D01*
X0052520Y0034111D01*
X0052533Y0034059D01*
X0052542Y0034007D01*
X0052548Y0033954D01*
X0052550Y0033900D01*
X0052550Y0033150D01*
X0052550Y0034050D02*
X0053750Y0034650D01*
X0054050Y0035865D02*
X0054050Y0037065D01*
X0053750Y0038411D02*
X0053750Y0039611D01*
X0053750Y0038411D02*
X0051050Y0038411D01*
X0051050Y0040907D02*
X0051050Y0042107D01*
X0051050Y0040907D02*
X0053750Y0040907D01*
X0053750Y0042107D01*
X0053750Y0043395D02*
X0053750Y0044145D01*
X0053748Y0044199D01*
X0053742Y0044252D01*
X0053733Y0044304D01*
X0053720Y0044356D01*
X0053703Y0044407D01*
X0053682Y0044457D01*
X0053658Y0044504D01*
X0053631Y0044550D01*
X0053600Y0044594D01*
X0053567Y0044636D01*
X0053530Y0044675D01*
X0053491Y0044712D01*
X0053449Y0044745D01*
X0053405Y0044776D01*
X0053359Y0044803D01*
X0053312Y0044827D01*
X0053262Y0044848D01*
X0053211Y0044865D01*
X0053159Y0044878D01*
X0053107Y0044887D01*
X0053054Y0044893D01*
X0053000Y0044895D01*
X0051800Y0044895D01*
X0051746Y0044893D01*
X0051693Y0044887D01*
X0051641Y0044878D01*
X0051589Y0044865D01*
X0051538Y0044848D01*
X0051488Y0044827D01*
X0051441Y0044803D01*
X0051395Y0044776D01*
X0051351Y0044745D01*
X0051309Y0044712D01*
X0051270Y0044675D01*
X0051233Y0044636D01*
X0051200Y0044594D01*
X0051169Y0044550D01*
X0051142Y0044504D01*
X0051118Y0044457D01*
X0051097Y0044407D01*
X0051080Y0044356D01*
X0051067Y0044304D01*
X0051058Y0044252D01*
X0051052Y0044199D01*
X0051050Y0044145D01*
X0051050Y0043395D01*
X0053750Y0043395D01*
X0052950Y0044010D02*
X0052950Y0045510D01*
X0052950Y0044760D02*
X0050250Y0044760D01*
X0050850Y0044010D01*
X0051600Y0048390D02*
X0051692Y0048388D01*
X0051783Y0048382D01*
X0051875Y0048373D01*
X0051965Y0048360D01*
X0052056Y0048343D01*
X0052145Y0048322D01*
X0052233Y0048298D01*
X0052321Y0048270D01*
X0052407Y0048239D01*
X0052492Y0048203D01*
X0052575Y0048165D01*
X0052618Y0048148D01*
X0052659Y0048128D01*
X0052698Y0048105D01*
X0052736Y0048078D01*
X0052771Y0048048D01*
X0052803Y0048016D01*
X0052833Y0047981D01*
X0052860Y0047944D01*
X0052883Y0047904D01*
X0052903Y0047863D01*
X0052920Y0047820D01*
X0052933Y0047776D01*
X0052942Y0047731D01*
X0052948Y0047686D01*
X0052950Y0047640D01*
X0052948Y0047594D01*
X0052942Y0047549D01*
X0052933Y0047504D01*
X0052920Y0047460D01*
X0052903Y0047417D01*
X0052883Y0047376D01*
X0052860Y0047336D01*
X0052833Y0047299D01*
X0052803Y0047264D01*
X0052771Y0047232D01*
X0052736Y0047202D01*
X0052698Y0047175D01*
X0052659Y0047152D01*
X0052618Y0047132D01*
X0052575Y0047115D01*
X0052350Y0047040D02*
X0050850Y0048240D01*
X0050625Y0048165D02*
X0050582Y0048148D01*
X0050541Y0048128D01*
X0050502Y0048105D01*
X0050464Y0048078D01*
X0050429Y0048048D01*
X0050397Y0048016D01*
X0050367Y0047981D01*
X0050340Y0047944D01*
X0050317Y0047904D01*
X0050297Y0047863D01*
X0050280Y0047820D01*
X0050267Y0047776D01*
X0050258Y0047731D01*
X0050252Y0047686D01*
X0050250Y0047640D01*
X0050252Y0047594D01*
X0050258Y0047549D01*
X0050267Y0047504D01*
X0050280Y0047460D01*
X0050297Y0047417D01*
X0050317Y0047376D01*
X0050340Y0047336D01*
X0050367Y0047299D01*
X0050397Y0047264D01*
X0050429Y0047232D01*
X0050464Y0047202D01*
X0050502Y0047175D01*
X0050541Y0047152D01*
X0050582Y0047132D01*
X0050625Y0047115D01*
X0051050Y0047121D02*
X0051650Y0046371D01*
X0051600Y0048390D02*
X0051508Y0048388D01*
X0051417Y0048382D01*
X0051325Y0048373D01*
X0051235Y0048360D01*
X0051144Y0048343D01*
X0051055Y0048322D01*
X0050967Y0048298D01*
X0050879Y0048270D01*
X0050793Y0048239D01*
X0050708Y0048203D01*
X0050625Y0048165D01*
X0051050Y0047121D02*
X0053750Y0047121D01*
X0053750Y0046371D02*
X0053750Y0047871D01*
X0052350Y0049920D02*
X0050850Y0051120D01*
X0050625Y0051045D02*
X0050582Y0051028D01*
X0050541Y0051008D01*
X0050502Y0050985D01*
X0050464Y0050958D01*
X0050429Y0050928D01*
X0050397Y0050896D01*
X0050367Y0050861D01*
X0050340Y0050824D01*
X0050317Y0050784D01*
X0050297Y0050743D01*
X0050280Y0050700D01*
X0050267Y0050656D01*
X0050258Y0050611D01*
X0050252Y0050566D01*
X0050250Y0050520D01*
X0050252Y0050474D01*
X0050258Y0050429D01*
X0050267Y0050384D01*
X0050280Y0050340D01*
X0050297Y0050297D01*
X0050317Y0050256D01*
X0050340Y0050216D01*
X0050367Y0050179D01*
X0050397Y0050144D01*
X0050429Y0050112D01*
X0050464Y0050082D01*
X0050502Y0050055D01*
X0050541Y0050032D01*
X0050582Y0050012D01*
X0050625Y0049995D01*
X0051600Y0046890D02*
X0051692Y0046892D01*
X0051783Y0046898D01*
X0051875Y0046907D01*
X0051965Y0046920D01*
X0052056Y0046937D01*
X0052145Y0046958D01*
X0052233Y0046982D01*
X0052321Y0047010D01*
X0052407Y0047041D01*
X0052492Y0047077D01*
X0052575Y0047115D01*
X0052575Y0051045D02*
X0052492Y0051083D01*
X0052407Y0051119D01*
X0052321Y0051150D01*
X0052233Y0051178D01*
X0052145Y0051202D01*
X0052056Y0051223D01*
X0051965Y0051240D01*
X0051875Y0051253D01*
X0051783Y0051262D01*
X0051692Y0051268D01*
X0051600Y0051270D01*
X0052575Y0053925D02*
X0052492Y0053963D01*
X0052407Y0053999D01*
X0052321Y0054030D01*
X0052233Y0054058D01*
X0052145Y0054082D01*
X0052056Y0054103D01*
X0051965Y0054120D01*
X0051875Y0054133D01*
X0051783Y0054142D01*
X0051692Y0054148D01*
X0051600Y0054150D01*
X0051600Y0052650D02*
X0051692Y0052652D01*
X0051783Y0052658D01*
X0051875Y0052667D01*
X0051965Y0052680D01*
X0052056Y0052697D01*
X0052145Y0052718D01*
X0052233Y0052742D01*
X0052321Y0052770D01*
X0052407Y0052801D01*
X0052492Y0052837D01*
X0052575Y0052875D01*
X0052350Y0052800D02*
X0050850Y0054000D01*
X0050625Y0053925D02*
X0050582Y0053908D01*
X0050541Y0053888D01*
X0050502Y0053865D01*
X0050464Y0053838D01*
X0050429Y0053808D01*
X0050397Y0053776D01*
X0050367Y0053741D01*
X0050340Y0053704D01*
X0050317Y0053664D01*
X0050297Y0053623D01*
X0050280Y0053580D01*
X0050267Y0053536D01*
X0050258Y0053491D01*
X0050252Y0053446D01*
X0050250Y0053400D01*
X0050252Y0053354D01*
X0050258Y0053309D01*
X0050267Y0053264D01*
X0050280Y0053220D01*
X0050297Y0053177D01*
X0050317Y0053136D01*
X0050340Y0053096D01*
X0050367Y0053059D01*
X0050397Y0053024D01*
X0050429Y0052992D01*
X0050464Y0052962D01*
X0050502Y0052935D01*
X0050541Y0052912D01*
X0050582Y0052892D01*
X0050625Y0052875D01*
X0051600Y0049770D02*
X0051692Y0049772D01*
X0051783Y0049778D01*
X0051875Y0049787D01*
X0051965Y0049800D01*
X0052056Y0049817D01*
X0052145Y0049838D01*
X0052233Y0049862D01*
X0052321Y0049890D01*
X0052407Y0049921D01*
X0052492Y0049957D01*
X0052575Y0049995D01*
X0052950Y0050520D02*
X0052948Y0050566D01*
X0052942Y0050611D01*
X0052933Y0050656D01*
X0052920Y0050700D01*
X0052903Y0050743D01*
X0052883Y0050784D01*
X0052860Y0050824D01*
X0052833Y0050861D01*
X0052803Y0050896D01*
X0052771Y0050928D01*
X0052736Y0050958D01*
X0052698Y0050985D01*
X0052659Y0051008D01*
X0052618Y0051028D01*
X0052575Y0051045D01*
X0052950Y0050520D02*
X0052948Y0050474D01*
X0052942Y0050429D01*
X0052933Y0050384D01*
X0052920Y0050340D01*
X0052903Y0050297D01*
X0052883Y0050256D01*
X0052860Y0050216D01*
X0052833Y0050179D01*
X0052803Y0050144D01*
X0052771Y0050112D01*
X0052736Y0050082D01*
X0052698Y0050055D01*
X0052659Y0050032D01*
X0052618Y0050012D01*
X0052575Y0049995D01*
X0051600Y0046890D02*
X0051508Y0046892D01*
X0051417Y0046898D01*
X0051325Y0046907D01*
X0051235Y0046920D01*
X0051144Y0046937D01*
X0051055Y0046958D01*
X0050967Y0046982D01*
X0050879Y0047010D01*
X0050793Y0047041D01*
X0050708Y0047077D01*
X0050625Y0047115D01*
X0050625Y0051045D02*
X0050708Y0051083D01*
X0050793Y0051119D01*
X0050879Y0051150D01*
X0050967Y0051178D01*
X0051055Y0051202D01*
X0051144Y0051223D01*
X0051235Y0051240D01*
X0051325Y0051253D01*
X0051417Y0051262D01*
X0051508Y0051268D01*
X0051600Y0051270D01*
X0050625Y0053925D02*
X0050708Y0053963D01*
X0050793Y0053999D01*
X0050879Y0054030D01*
X0050967Y0054058D01*
X0051055Y0054082D01*
X0051144Y0054103D01*
X0051235Y0054120D01*
X0051325Y0054133D01*
X0051417Y0054142D01*
X0051508Y0054148D01*
X0051600Y0054150D01*
X0051600Y0052650D02*
X0051508Y0052652D01*
X0051417Y0052658D01*
X0051325Y0052667D01*
X0051235Y0052680D01*
X0051144Y0052697D01*
X0051055Y0052718D01*
X0050967Y0052742D01*
X0050879Y0052770D01*
X0050793Y0052801D01*
X0050708Y0052837D01*
X0050625Y0052875D01*
X0050625Y0049995D02*
X0050708Y0049957D01*
X0050793Y0049921D01*
X0050879Y0049890D01*
X0050967Y0049862D01*
X0051055Y0049838D01*
X0051144Y0049817D01*
X0051235Y0049800D01*
X0051325Y0049787D01*
X0051417Y0049778D01*
X0051508Y0049772D01*
X0051600Y0049770D01*
X0052950Y0053400D02*
X0052948Y0053446D01*
X0052942Y0053491D01*
X0052933Y0053536D01*
X0052920Y0053580D01*
X0052903Y0053623D01*
X0052883Y0053664D01*
X0052860Y0053704D01*
X0052833Y0053741D01*
X0052803Y0053776D01*
X0052771Y0053808D01*
X0052736Y0053838D01*
X0052698Y0053865D01*
X0052659Y0053888D01*
X0052618Y0053908D01*
X0052575Y0053925D01*
X0052950Y0053400D02*
X0052948Y0053354D01*
X0052942Y0053309D01*
X0052933Y0053264D01*
X0052920Y0053220D01*
X0052903Y0053177D01*
X0052883Y0053136D01*
X0052860Y0053096D01*
X0052833Y0053059D01*
X0052803Y0053024D01*
X0052771Y0052992D01*
X0052736Y0052962D01*
X0052698Y0052935D01*
X0052659Y0052912D01*
X0052618Y0052892D01*
X0052575Y0052875D01*
X0052250Y0041807D02*
X0052250Y0040907D01*
X0051050Y0033150D02*
X0053750Y0033150D01*
X0042750Y0036650D02*
X0042750Y0038150D01*
X0042750Y0039530D02*
X0042750Y0041030D01*
X0042750Y0039530D02*
X0041250Y0040805D01*
X0040050Y0040355D02*
X0040052Y0040298D01*
X0040058Y0040241D01*
X0040067Y0040184D01*
X0040080Y0040128D01*
X0040097Y0040073D01*
X0040117Y0040020D01*
X0040141Y0039968D01*
X0040169Y0039917D01*
X0040199Y0039869D01*
X0040233Y0039822D01*
X0040270Y0039778D01*
X0040309Y0039737D01*
X0040352Y0039698D01*
X0040396Y0039662D01*
X0040443Y0039629D01*
X0040492Y0039599D01*
X0040543Y0039573D01*
X0040596Y0039550D01*
X0040650Y0039530D01*
X0041250Y0040805D02*
X0041212Y0040842D01*
X0041171Y0040877D01*
X0041128Y0040908D01*
X0041082Y0040936D01*
X0041035Y0040960D01*
X0040986Y0040981D01*
X0040935Y0040999D01*
X0040884Y0041012D01*
X0040831Y0041022D01*
X0040778Y0041028D01*
X0040725Y0041030D01*
X0040675Y0041028D01*
X0040624Y0041022D01*
X0040575Y0041013D01*
X0040526Y0041000D01*
X0040478Y0040983D01*
X0040432Y0040963D01*
X0040388Y0040940D01*
X0040345Y0040913D01*
X0040304Y0040883D01*
X0040266Y0040850D01*
X0040230Y0040814D01*
X0040197Y0040776D01*
X0040167Y0040735D01*
X0040140Y0040693D01*
X0040117Y0040648D01*
X0040097Y0040602D01*
X0040080Y0040554D01*
X0040067Y0040505D01*
X0040058Y0040456D01*
X0040052Y0040405D01*
X0040050Y0040355D01*
X0041400Y0043910D02*
X0041492Y0043908D01*
X0041583Y0043902D01*
X0041675Y0043893D01*
X0041765Y0043880D01*
X0041856Y0043863D01*
X0041945Y0043842D01*
X0042033Y0043818D01*
X0042121Y0043790D01*
X0042207Y0043759D01*
X0042292Y0043723D01*
X0042375Y0043685D01*
X0042418Y0043668D01*
X0042459Y0043648D01*
X0042498Y0043625D01*
X0042536Y0043598D01*
X0042571Y0043568D01*
X0042603Y0043536D01*
X0042633Y0043501D01*
X0042660Y0043464D01*
X0042683Y0043424D01*
X0042703Y0043383D01*
X0042720Y0043340D01*
X0042733Y0043296D01*
X0042742Y0043251D01*
X0042748Y0043206D01*
X0042750Y0043160D01*
X0042748Y0043114D01*
X0042742Y0043069D01*
X0042733Y0043024D01*
X0042720Y0042980D01*
X0042703Y0042937D01*
X0042683Y0042896D01*
X0042660Y0042856D01*
X0042633Y0042819D01*
X0042603Y0042784D01*
X0042571Y0042752D01*
X0042536Y0042722D01*
X0042498Y0042695D01*
X0042459Y0042672D01*
X0042418Y0042652D01*
X0042375Y0042635D01*
X0042150Y0042560D02*
X0040650Y0043760D01*
X0040425Y0043685D02*
X0040382Y0043668D01*
X0040341Y0043648D01*
X0040302Y0043625D01*
X0040264Y0043598D01*
X0040229Y0043568D01*
X0040197Y0043536D01*
X0040167Y0043501D01*
X0040140Y0043464D01*
X0040117Y0043424D01*
X0040097Y0043383D01*
X0040080Y0043340D01*
X0040067Y0043296D01*
X0040058Y0043251D01*
X0040052Y0043206D01*
X0040050Y0043160D01*
X0040052Y0043114D01*
X0040058Y0043069D01*
X0040067Y0043024D01*
X0040080Y0042980D01*
X0040097Y0042937D01*
X0040117Y0042896D01*
X0040140Y0042856D01*
X0040167Y0042819D01*
X0040197Y0042784D01*
X0040229Y0042752D01*
X0040264Y0042722D01*
X0040302Y0042695D01*
X0040341Y0042672D01*
X0040382Y0042652D01*
X0040425Y0042635D01*
X0040425Y0043685D02*
X0040508Y0043723D01*
X0040593Y0043759D01*
X0040679Y0043790D01*
X0040767Y0043818D01*
X0040855Y0043842D01*
X0040944Y0043863D01*
X0041035Y0043880D01*
X0041125Y0043893D01*
X0041217Y0043902D01*
X0041308Y0043908D01*
X0041400Y0043910D01*
X0041400Y0042410D02*
X0041492Y0042412D01*
X0041583Y0042418D01*
X0041675Y0042427D01*
X0041765Y0042440D01*
X0041856Y0042457D01*
X0041945Y0042478D01*
X0042033Y0042502D01*
X0042121Y0042530D01*
X0042207Y0042561D01*
X0042292Y0042597D01*
X0042375Y0042635D01*
X0041400Y0042410D02*
X0041308Y0042412D01*
X0041217Y0042418D01*
X0041125Y0042427D01*
X0041035Y0042440D01*
X0040944Y0042457D01*
X0040855Y0042478D01*
X0040767Y0042502D01*
X0040679Y0042530D01*
X0040593Y0042561D01*
X0040508Y0042597D01*
X0040425Y0042635D01*
X0041250Y0037925D02*
X0042750Y0036650D01*
X0040650Y0036650D02*
X0040596Y0036670D01*
X0040543Y0036693D01*
X0040492Y0036719D01*
X0040443Y0036749D01*
X0040396Y0036782D01*
X0040352Y0036818D01*
X0040309Y0036857D01*
X0040270Y0036898D01*
X0040233Y0036942D01*
X0040199Y0036989D01*
X0040169Y0037037D01*
X0040141Y0037088D01*
X0040117Y0037140D01*
X0040097Y0037193D01*
X0040080Y0037248D01*
X0040067Y0037304D01*
X0040058Y0037361D01*
X0040052Y0037418D01*
X0040050Y0037475D01*
X0040052Y0037525D01*
X0040058Y0037576D01*
X0040067Y0037625D01*
X0040080Y0037674D01*
X0040097Y0037722D01*
X0040117Y0037768D01*
X0040140Y0037813D01*
X0040167Y0037855D01*
X0040197Y0037896D01*
X0040230Y0037934D01*
X0040266Y0037970D01*
X0040304Y0038003D01*
X0040345Y0038033D01*
X0040388Y0038060D01*
X0040432Y0038083D01*
X0040478Y0038103D01*
X0040526Y0038120D01*
X0040575Y0038133D01*
X0040624Y0038142D01*
X0040675Y0038148D01*
X0040725Y0038150D01*
X0040778Y0038148D01*
X0040831Y0038142D01*
X0040884Y0038132D01*
X0040935Y0038119D01*
X0040986Y0038101D01*
X0041035Y0038080D01*
X0041082Y0038056D01*
X0041128Y0038028D01*
X0041171Y0037997D01*
X0041212Y0037962D01*
X0041250Y0037925D01*
X0034050Y0037065D02*
X0034050Y0035865D01*
X0033750Y0034650D02*
X0032550Y0034050D01*
X0032550Y0033900D02*
X0032550Y0033150D01*
X0032550Y0033900D02*
X0032548Y0033954D01*
X0032542Y0034007D01*
X0032533Y0034059D01*
X0032520Y0034111D01*
X0032503Y0034162D01*
X0032482Y0034212D01*
X0032458Y0034259D01*
X0032431Y0034305D01*
X0032400Y0034349D01*
X0032367Y0034391D01*
X0032330Y0034430D01*
X0032291Y0034467D01*
X0032249Y0034500D01*
X0032205Y0034531D01*
X0032159Y0034558D01*
X0032112Y0034582D01*
X0032062Y0034603D01*
X0032011Y0034620D01*
X0031959Y0034633D01*
X0031907Y0034642D01*
X0031854Y0034648D01*
X0031800Y0034650D01*
X0031746Y0034648D01*
X0031693Y0034642D01*
X0031641Y0034633D01*
X0031589Y0034620D01*
X0031538Y0034603D01*
X0031488Y0034582D01*
X0031441Y0034558D01*
X0031395Y0034531D01*
X0031351Y0034500D01*
X0031309Y0034467D01*
X0031270Y0034430D01*
X0031233Y0034391D01*
X0031200Y0034349D01*
X0031169Y0034305D01*
X0031142Y0034259D01*
X0031118Y0034212D01*
X0031097Y0034162D01*
X0031080Y0034111D01*
X0031067Y0034059D01*
X0031058Y0034007D01*
X0031052Y0033954D01*
X0031050Y0033900D01*
X0031050Y0033150D01*
X0033750Y0033150D01*
X0032750Y0036650D02*
X0032750Y0037400D01*
X0032748Y0037454D01*
X0032742Y0037507D01*
X0032733Y0037559D01*
X0032720Y0037611D01*
X0032703Y0037662D01*
X0032682Y0037712D01*
X0032658Y0037759D01*
X0032631Y0037805D01*
X0032600Y0037849D01*
X0032567Y0037891D01*
X0032530Y0037930D01*
X0032491Y0037967D01*
X0032449Y0038000D01*
X0032405Y0038031D01*
X0032359Y0038058D01*
X0032312Y0038082D01*
X0032262Y0038103D01*
X0032211Y0038120D01*
X0032159Y0038133D01*
X0032107Y0038142D01*
X0032054Y0038148D01*
X0032000Y0038150D01*
X0031946Y0038148D01*
X0031893Y0038142D01*
X0031841Y0038133D01*
X0031789Y0038120D01*
X0031738Y0038103D01*
X0031688Y0038082D01*
X0031641Y0038058D01*
X0031595Y0038031D01*
X0031551Y0038000D01*
X0031509Y0037967D01*
X0031470Y0037930D01*
X0031433Y0037891D01*
X0031400Y0037849D01*
X0031369Y0037805D01*
X0031342Y0037759D01*
X0031318Y0037712D01*
X0031297Y0037662D01*
X0031280Y0037611D01*
X0031267Y0037559D01*
X0031258Y0037507D01*
X0031252Y0037454D01*
X0031250Y0037400D01*
X0031250Y0037550D02*
X0031250Y0036950D01*
X0031250Y0037550D02*
X0031248Y0037598D01*
X0031242Y0037646D01*
X0031233Y0037694D01*
X0031219Y0037740D01*
X0031202Y0037785D01*
X0031181Y0037829D01*
X0031157Y0037871D01*
X0031130Y0037910D01*
X0031099Y0037948D01*
X0031066Y0037983D01*
X0031029Y0038015D01*
X0030991Y0038044D01*
X0030950Y0038070D01*
X0030907Y0038092D01*
X0030863Y0038111D01*
X0030817Y0038126D01*
X0030770Y0038138D01*
X0030722Y0038146D01*
X0030674Y0038150D01*
X0030626Y0038150D01*
X0030578Y0038146D01*
X0030530Y0038138D01*
X0030483Y0038126D01*
X0030437Y0038111D01*
X0030393Y0038092D01*
X0030350Y0038070D01*
X0030309Y0038044D01*
X0030271Y0038015D01*
X0030234Y0037983D01*
X0030201Y0037948D01*
X0030170Y0037910D01*
X0030143Y0037871D01*
X0030119Y0037829D01*
X0030098Y0037785D01*
X0030081Y0037740D01*
X0030067Y0037694D01*
X0030058Y0037646D01*
X0030052Y0037598D01*
X0030050Y0037550D01*
X0030050Y0036650D01*
X0031050Y0038403D02*
X0033750Y0038403D01*
X0033750Y0039903D02*
X0031050Y0039903D01*
X0030050Y0040280D02*
X0030052Y0040326D01*
X0030058Y0040371D01*
X0030067Y0040416D01*
X0030080Y0040460D01*
X0030097Y0040503D01*
X0030117Y0040544D01*
X0030140Y0040584D01*
X0030167Y0040621D01*
X0030197Y0040656D01*
X0030229Y0040688D01*
X0030264Y0040718D01*
X0030302Y0040745D01*
X0030341Y0040768D01*
X0030382Y0040788D01*
X0030425Y0040805D01*
X0030650Y0040880D02*
X0032150Y0039680D01*
X0032250Y0039903D02*
X0032250Y0038403D01*
X0032375Y0040805D02*
X0032292Y0040843D01*
X0032207Y0040879D01*
X0032121Y0040910D01*
X0032033Y0040938D01*
X0031945Y0040962D01*
X0031856Y0040983D01*
X0031765Y0041000D01*
X0031675Y0041013D01*
X0031583Y0041022D01*
X0031492Y0041028D01*
X0031400Y0041030D01*
X0032375Y0043685D02*
X0032292Y0043723D01*
X0032207Y0043759D01*
X0032121Y0043790D01*
X0032033Y0043818D01*
X0031945Y0043842D01*
X0031856Y0043863D01*
X0031765Y0043880D01*
X0031675Y0043893D01*
X0031583Y0043902D01*
X0031492Y0043908D01*
X0031400Y0043910D01*
X0031050Y0044363D02*
X0033750Y0044363D01*
X0033750Y0045563D01*
X0033750Y0046859D02*
X0033750Y0048059D01*
X0033750Y0049251D02*
X0033750Y0050751D01*
X0033750Y0050001D02*
X0031050Y0050001D01*
X0031650Y0049251D01*
X0031050Y0046859D02*
X0033750Y0046859D01*
X0032375Y0042635D02*
X0032292Y0042597D01*
X0032207Y0042561D01*
X0032121Y0042530D01*
X0032033Y0042502D01*
X0031945Y0042478D01*
X0031856Y0042457D01*
X0031765Y0042440D01*
X0031675Y0042427D01*
X0031583Y0042418D01*
X0031492Y0042412D01*
X0031400Y0042410D01*
X0031050Y0042129D02*
X0033750Y0043029D01*
X0033075Y0042804D02*
X0033075Y0041454D01*
X0033750Y0041229D02*
X0031050Y0042129D01*
X0031400Y0039530D02*
X0031492Y0039532D01*
X0031583Y0039538D01*
X0031675Y0039547D01*
X0031765Y0039560D01*
X0031856Y0039577D01*
X0031945Y0039598D01*
X0032033Y0039622D01*
X0032121Y0039650D01*
X0032207Y0039681D01*
X0032292Y0039717D01*
X0032375Y0039755D01*
X0032750Y0040280D02*
X0032748Y0040326D01*
X0032742Y0040371D01*
X0032733Y0040416D01*
X0032720Y0040460D01*
X0032703Y0040503D01*
X0032683Y0040544D01*
X0032660Y0040584D01*
X0032633Y0040621D01*
X0032603Y0040656D01*
X0032571Y0040688D01*
X0032536Y0040718D01*
X0032498Y0040745D01*
X0032459Y0040768D01*
X0032418Y0040788D01*
X0032375Y0040805D01*
X0032750Y0040280D02*
X0032748Y0040234D01*
X0032742Y0040189D01*
X0032733Y0040144D01*
X0032720Y0040100D01*
X0032703Y0040057D01*
X0032683Y0040016D01*
X0032660Y0039976D01*
X0032633Y0039939D01*
X0032603Y0039904D01*
X0032571Y0039872D01*
X0032536Y0039842D01*
X0032498Y0039815D01*
X0032459Y0039792D01*
X0032418Y0039772D01*
X0032375Y0039755D01*
X0031400Y0041030D02*
X0031308Y0041028D01*
X0031217Y0041022D01*
X0031125Y0041013D01*
X0031035Y0041000D01*
X0030944Y0040983D01*
X0030855Y0040962D01*
X0030767Y0040938D01*
X0030679Y0040910D01*
X0030593Y0040879D01*
X0030508Y0040843D01*
X0030425Y0040805D01*
X0030050Y0040280D02*
X0030052Y0040234D01*
X0030058Y0040189D01*
X0030067Y0040144D01*
X0030080Y0040100D01*
X0030097Y0040057D01*
X0030117Y0040016D01*
X0030140Y0039976D01*
X0030167Y0039939D01*
X0030197Y0039904D01*
X0030229Y0039872D01*
X0030264Y0039842D01*
X0030302Y0039815D01*
X0030341Y0039792D01*
X0030382Y0039772D01*
X0030425Y0039755D01*
X0030425Y0043685D02*
X0030508Y0043723D01*
X0030593Y0043759D01*
X0030679Y0043790D01*
X0030767Y0043818D01*
X0030855Y0043842D01*
X0030944Y0043863D01*
X0031035Y0043880D01*
X0031125Y0043893D01*
X0031217Y0043902D01*
X0031308Y0043908D01*
X0031400Y0043910D01*
X0031400Y0042410D02*
X0031308Y0042412D01*
X0031217Y0042418D01*
X0031125Y0042427D01*
X0031035Y0042440D01*
X0030944Y0042457D01*
X0030855Y0042478D01*
X0030767Y0042502D01*
X0030679Y0042530D01*
X0030593Y0042561D01*
X0030508Y0042597D01*
X0030425Y0042635D01*
X0030050Y0043160D02*
X0030052Y0043206D01*
X0030058Y0043251D01*
X0030067Y0043296D01*
X0030080Y0043340D01*
X0030097Y0043383D01*
X0030117Y0043424D01*
X0030140Y0043464D01*
X0030167Y0043501D01*
X0030197Y0043536D01*
X0030229Y0043568D01*
X0030264Y0043598D01*
X0030302Y0043625D01*
X0030341Y0043648D01*
X0030382Y0043668D01*
X0030425Y0043685D01*
X0030650Y0043760D02*
X0032150Y0042560D01*
X0032750Y0043160D02*
X0032748Y0043206D01*
X0032742Y0043251D01*
X0032733Y0043296D01*
X0032720Y0043340D01*
X0032703Y0043383D01*
X0032683Y0043424D01*
X0032660Y0043464D01*
X0032633Y0043501D01*
X0032603Y0043536D01*
X0032571Y0043568D01*
X0032536Y0043598D01*
X0032498Y0043625D01*
X0032459Y0043648D01*
X0032418Y0043668D01*
X0032375Y0043685D01*
X0032750Y0043160D02*
X0032748Y0043114D01*
X0032742Y0043069D01*
X0032733Y0043024D01*
X0032720Y0042980D01*
X0032703Y0042937D01*
X0032683Y0042896D01*
X0032660Y0042856D01*
X0032633Y0042819D01*
X0032603Y0042784D01*
X0032571Y0042752D01*
X0032536Y0042722D01*
X0032498Y0042695D01*
X0032459Y0042672D01*
X0032418Y0042652D01*
X0032375Y0042635D01*
X0031400Y0039530D02*
X0031308Y0039532D01*
X0031217Y0039538D01*
X0031125Y0039547D01*
X0031035Y0039560D01*
X0030944Y0039577D01*
X0030855Y0039598D01*
X0030767Y0039622D01*
X0030679Y0039650D01*
X0030593Y0039681D01*
X0030508Y0039717D01*
X0030425Y0039755D01*
X0030425Y0042635D02*
X0030382Y0042652D01*
X0030341Y0042672D01*
X0030302Y0042695D01*
X0030264Y0042722D01*
X0030229Y0042752D01*
X0030197Y0042784D01*
X0030167Y0042819D01*
X0030140Y0042856D01*
X0030117Y0042896D01*
X0030097Y0042937D01*
X0030080Y0042980D01*
X0030067Y0043024D01*
X0030058Y0043069D01*
X0030052Y0043114D01*
X0030050Y0043160D01*
X0023750Y0043395D02*
X0023750Y0044145D01*
X0023748Y0044199D01*
X0023742Y0044252D01*
X0023733Y0044304D01*
X0023720Y0044356D01*
X0023703Y0044407D01*
X0023682Y0044457D01*
X0023658Y0044504D01*
X0023631Y0044550D01*
X0023600Y0044594D01*
X0023567Y0044636D01*
X0023530Y0044675D01*
X0023491Y0044712D01*
X0023449Y0044745D01*
X0023405Y0044776D01*
X0023359Y0044803D01*
X0023312Y0044827D01*
X0023262Y0044848D01*
X0023211Y0044865D01*
X0023159Y0044878D01*
X0023107Y0044887D01*
X0023054Y0044893D01*
X0023000Y0044895D01*
X0021800Y0044895D01*
X0021746Y0044893D01*
X0021693Y0044887D01*
X0021641Y0044878D01*
X0021589Y0044865D01*
X0021538Y0044848D01*
X0021488Y0044827D01*
X0021441Y0044803D01*
X0021395Y0044776D01*
X0021351Y0044745D01*
X0021309Y0044712D01*
X0021270Y0044675D01*
X0021233Y0044636D01*
X0021200Y0044594D01*
X0021169Y0044550D01*
X0021142Y0044504D01*
X0021118Y0044457D01*
X0021097Y0044407D01*
X0021080Y0044356D01*
X0021067Y0044304D01*
X0021058Y0044252D01*
X0021052Y0044199D01*
X0021050Y0044145D01*
X0021050Y0043395D01*
X0023750Y0043395D01*
X0023750Y0042107D02*
X0023750Y0040907D01*
X0021050Y0040907D01*
X0021050Y0042107D01*
X0021200Y0037950D02*
X0021320Y0037952D01*
X0021440Y0037958D01*
X0021560Y0037968D01*
X0021679Y0037981D01*
X0021798Y0037999D01*
X0021916Y0038020D01*
X0022034Y0038045D01*
X0022150Y0038074D01*
X0022266Y0038107D01*
X0022380Y0038143D01*
X0022494Y0038183D01*
X0022606Y0038227D01*
X0022716Y0038274D01*
X0022825Y0038325D01*
X0022450Y0038200D02*
X0019950Y0040200D01*
X0019575Y0040075D02*
X0019519Y0040054D01*
X0019464Y0040028D01*
X0019410Y0040000D01*
X0019359Y0039968D01*
X0019310Y0039933D01*
X0019264Y0039894D01*
X0019220Y0039853D01*
X0019178Y0039809D01*
X0019140Y0039762D01*
X0019105Y0039713D01*
X0019073Y0039661D01*
X0019045Y0039608D01*
X0019020Y0039553D01*
X0018999Y0039497D01*
X0018981Y0039439D01*
X0018968Y0039380D01*
X0018958Y0039320D01*
X0018952Y0039260D01*
X0018950Y0039200D01*
X0018952Y0039140D01*
X0018958Y0039080D01*
X0018968Y0039020D01*
X0018981Y0038961D01*
X0018999Y0038903D01*
X0019020Y0038847D01*
X0019045Y0038792D01*
X0019073Y0038739D01*
X0019105Y0038687D01*
X0019140Y0038638D01*
X0019178Y0038591D01*
X0019220Y0038547D01*
X0019264Y0038506D01*
X0019310Y0038467D01*
X0019359Y0038432D01*
X0019410Y0038400D01*
X0019464Y0038372D01*
X0019519Y0038346D01*
X0019575Y0038325D01*
X0021050Y0038411D02*
X0023750Y0038411D01*
X0023750Y0039611D01*
X0023450Y0039200D02*
X0023448Y0039260D01*
X0023442Y0039320D01*
X0023432Y0039380D01*
X0023419Y0039439D01*
X0023401Y0039497D01*
X0023380Y0039553D01*
X0023355Y0039608D01*
X0023327Y0039661D01*
X0023295Y0039713D01*
X0023260Y0039762D01*
X0023222Y0039809D01*
X0023180Y0039853D01*
X0023136Y0039894D01*
X0023090Y0039933D01*
X0023041Y0039968D01*
X0022990Y0040000D01*
X0022936Y0040028D01*
X0022881Y0040054D01*
X0022825Y0040075D01*
X0023450Y0039200D02*
X0023448Y0039140D01*
X0023442Y0039080D01*
X0023432Y0039020D01*
X0023419Y0038961D01*
X0023401Y0038903D01*
X0023380Y0038847D01*
X0023355Y0038792D01*
X0023327Y0038739D01*
X0023295Y0038687D01*
X0023260Y0038638D01*
X0023222Y0038591D01*
X0023180Y0038547D01*
X0023136Y0038506D01*
X0023090Y0038467D01*
X0023041Y0038432D01*
X0022990Y0038400D01*
X0022936Y0038372D01*
X0022881Y0038346D01*
X0022825Y0038325D01*
X0024050Y0037065D02*
X0024050Y0035865D01*
X0023750Y0034650D02*
X0022550Y0034050D01*
X0022550Y0033900D02*
X0022550Y0033150D01*
X0023450Y0033300D02*
X0023450Y0034550D01*
X0023450Y0033300D02*
X0018950Y0033300D01*
X0018950Y0034550D01*
X0018952Y0034618D01*
X0018957Y0034685D01*
X0018966Y0034752D01*
X0018979Y0034819D01*
X0018996Y0034884D01*
X0019015Y0034949D01*
X0019039Y0035013D01*
X0019066Y0035075D01*
X0019096Y0035136D01*
X0019129Y0035194D01*
X0019165Y0035251D01*
X0019205Y0035306D01*
X0019247Y0035359D01*
X0019293Y0035410D01*
X0019340Y0035457D01*
X0019391Y0035503D01*
X0019444Y0035545D01*
X0019499Y0035585D01*
X0019556Y0035621D01*
X0019614Y0035654D01*
X0019675Y0035684D01*
X0019737Y0035711D01*
X0019801Y0035735D01*
X0019866Y0035754D01*
X0019931Y0035771D01*
X0019998Y0035784D01*
X0020065Y0035793D01*
X0020132Y0035798D01*
X0020200Y0035800D01*
X0022200Y0035800D01*
X0022268Y0035798D01*
X0022335Y0035793D01*
X0022402Y0035784D01*
X0022469Y0035771D01*
X0022534Y0035754D01*
X0022599Y0035735D01*
X0022663Y0035711D01*
X0022725Y0035684D01*
X0022786Y0035654D01*
X0022844Y0035621D01*
X0022901Y0035585D01*
X0022956Y0035545D01*
X0023009Y0035503D01*
X0023060Y0035457D01*
X0023107Y0035410D01*
X0023153Y0035359D01*
X0023195Y0035306D01*
X0023235Y0035251D01*
X0023271Y0035194D01*
X0023304Y0035136D01*
X0023334Y0035075D01*
X0023361Y0035013D01*
X0023385Y0034949D01*
X0023404Y0034884D01*
X0023421Y0034819D01*
X0023434Y0034752D01*
X0023443Y0034685D01*
X0023448Y0034618D01*
X0023450Y0034550D01*
X0023750Y0033150D02*
X0021050Y0033150D01*
X0021050Y0033900D01*
X0021052Y0033954D01*
X0021058Y0034007D01*
X0021067Y0034059D01*
X0021080Y0034111D01*
X0021097Y0034162D01*
X0021118Y0034212D01*
X0021142Y0034259D01*
X0021169Y0034305D01*
X0021200Y0034349D01*
X0021233Y0034391D01*
X0021270Y0034430D01*
X0021309Y0034467D01*
X0021351Y0034500D01*
X0021395Y0034531D01*
X0021441Y0034558D01*
X0021488Y0034582D01*
X0021538Y0034603D01*
X0021589Y0034620D01*
X0021641Y0034633D01*
X0021693Y0034642D01*
X0021746Y0034648D01*
X0021800Y0034650D01*
X0021854Y0034648D01*
X0021907Y0034642D01*
X0021959Y0034633D01*
X0022011Y0034620D01*
X0022062Y0034603D01*
X0022112Y0034582D01*
X0022159Y0034558D01*
X0022205Y0034531D01*
X0022249Y0034500D01*
X0022291Y0034467D01*
X0022330Y0034430D01*
X0022367Y0034391D01*
X0022400Y0034349D01*
X0022431Y0034305D01*
X0022458Y0034259D01*
X0022482Y0034212D01*
X0022503Y0034162D01*
X0022520Y0034111D01*
X0022533Y0034059D01*
X0022542Y0034007D01*
X0022548Y0033954D01*
X0022550Y0033900D01*
X0023450Y0031410D02*
X0023450Y0029410D01*
X0018950Y0029410D01*
X0018950Y0031410D01*
X0020950Y0030910D02*
X0020950Y0029410D01*
X0023450Y0027510D02*
X0023450Y0025510D01*
X0018950Y0025510D01*
X0022825Y0040075D02*
X0022716Y0040126D01*
X0022606Y0040173D01*
X0022494Y0040217D01*
X0022380Y0040257D01*
X0022266Y0040293D01*
X0022150Y0040326D01*
X0022034Y0040355D01*
X0021916Y0040380D01*
X0021798Y0040401D01*
X0021679Y0040419D01*
X0021560Y0040432D01*
X0021440Y0040442D01*
X0021320Y0040448D01*
X0021200Y0040450D01*
X0022250Y0040907D02*
X0022250Y0041807D01*
X0021200Y0037950D02*
X0021080Y0037952D01*
X0020960Y0037958D01*
X0020840Y0037968D01*
X0020721Y0037981D01*
X0020602Y0037999D01*
X0020484Y0038020D01*
X0020366Y0038045D01*
X0020250Y0038074D01*
X0020134Y0038107D01*
X0020020Y0038143D01*
X0019906Y0038183D01*
X0019794Y0038227D01*
X0019684Y0038274D01*
X0019575Y0038325D01*
X0019575Y0040075D02*
X0019684Y0040126D01*
X0019794Y0040173D01*
X0019906Y0040217D01*
X0020020Y0040257D01*
X0020134Y0040293D01*
X0020250Y0040326D01*
X0020366Y0040355D01*
X0020484Y0040380D01*
X0020602Y0040401D01*
X0020721Y0040419D01*
X0020840Y0040432D01*
X0020960Y0040442D01*
X0021080Y0040448D01*
X0021200Y0040450D01*
X0023375Y0047646D02*
X0023292Y0047684D01*
X0023207Y0047720D01*
X0023121Y0047751D01*
X0023033Y0047779D01*
X0022945Y0047803D01*
X0022856Y0047824D01*
X0022765Y0047841D01*
X0022675Y0047854D01*
X0022583Y0047863D01*
X0022492Y0047869D01*
X0022400Y0047871D01*
X0022400Y0046371D02*
X0022492Y0046373D01*
X0022583Y0046379D01*
X0022675Y0046388D01*
X0022765Y0046401D01*
X0022856Y0046418D01*
X0022945Y0046439D01*
X0023033Y0046463D01*
X0023121Y0046491D01*
X0023207Y0046522D01*
X0023292Y0046558D01*
X0023375Y0046596D01*
X0023150Y0046521D02*
X0021650Y0047721D01*
X0021425Y0047646D02*
X0021382Y0047629D01*
X0021341Y0047609D01*
X0021302Y0047586D01*
X0021264Y0047559D01*
X0021229Y0047529D01*
X0021197Y0047497D01*
X0021167Y0047462D01*
X0021140Y0047425D01*
X0021117Y0047385D01*
X0021097Y0047344D01*
X0021080Y0047301D01*
X0021067Y0047257D01*
X0021058Y0047212D01*
X0021052Y0047167D01*
X0021050Y0047121D01*
X0021052Y0047075D01*
X0021058Y0047030D01*
X0021067Y0046985D01*
X0021080Y0046941D01*
X0021097Y0046898D01*
X0021117Y0046857D01*
X0021140Y0046817D01*
X0021167Y0046780D01*
X0021197Y0046745D01*
X0021229Y0046713D01*
X0021264Y0046683D01*
X0021302Y0046656D01*
X0021341Y0046633D01*
X0021382Y0046613D01*
X0021425Y0046596D01*
X0021425Y0047646D02*
X0021508Y0047684D01*
X0021593Y0047720D01*
X0021679Y0047751D01*
X0021767Y0047779D01*
X0021855Y0047803D01*
X0021944Y0047824D01*
X0022035Y0047841D01*
X0022125Y0047854D01*
X0022217Y0047863D01*
X0022308Y0047869D01*
X0022400Y0047871D01*
X0022400Y0046371D02*
X0022308Y0046373D01*
X0022217Y0046379D01*
X0022125Y0046388D01*
X0022035Y0046401D01*
X0021944Y0046418D01*
X0021855Y0046439D01*
X0021767Y0046463D01*
X0021679Y0046491D01*
X0021593Y0046522D01*
X0021508Y0046558D01*
X0021425Y0046596D01*
X0023375Y0047646D02*
X0023418Y0047629D01*
X0023459Y0047609D01*
X0023498Y0047586D01*
X0023536Y0047559D01*
X0023571Y0047529D01*
X0023603Y0047497D01*
X0023633Y0047462D01*
X0023660Y0047425D01*
X0023683Y0047385D01*
X0023703Y0047344D01*
X0023720Y0047301D01*
X0023733Y0047257D01*
X0023742Y0047212D01*
X0023748Y0047167D01*
X0023750Y0047121D01*
X0023748Y0047075D01*
X0023742Y0047030D01*
X0023733Y0046985D01*
X0023720Y0046941D01*
X0023703Y0046898D01*
X0023683Y0046857D01*
X0023660Y0046817D01*
X0023633Y0046780D01*
X0023603Y0046745D01*
X0023571Y0046713D01*
X0023536Y0046683D01*
X0023498Y0046656D01*
X0023459Y0046633D01*
X0023418Y0046613D01*
X0023375Y0046596D01*
D13*
X0026776Y0057802D02*
X0036224Y0057802D01*
X0036224Y0032998D01*
X0026776Y0032998D01*
X0026776Y0057802D01*
X0036776Y0057802D02*
X0046224Y0057802D01*
X0046224Y0032998D01*
X0036776Y0032998D01*
X0036776Y0057802D01*
X0046776Y0057802D02*
X0046776Y0032998D01*
X0056224Y0032998D01*
X0056224Y0057802D01*
X0046776Y0057802D01*
X0056776Y0057802D02*
X0066224Y0057802D01*
X0066224Y0032998D01*
X0056776Y0032998D01*
X0056776Y0057802D01*
D14*
X0076500Y0082400D03*
M02*
