G75*
%MOIN*%
%OFA0B0*%
%FSLAX25Y25*%
%IPPOS*%
%LPD*%
%AMOC8*
5,1,8,0,0,1.08239X$1,22.5*
%
%ADD10OC8,0.06300*%
%ADD11C,0.06300*%
%ADD12C,0.07400*%
%ADD13C,0.07500*%
%ADD14OC8,0.07500*%
%ADD15C,0.02000*%
%ADD16C,0.01000*%
D10*
X0014500Y0095400D03*
X0063500Y0095400D03*
D11*
X0049500Y0095400D03*
X0028500Y0095400D03*
D12*
X0031500Y0075400D03*
X0031500Y0065400D03*
X0041500Y0065400D03*
X0051500Y0065400D03*
X0061500Y0065400D03*
X0061500Y0075400D03*
X0076500Y0035400D03*
X0076500Y0025400D03*
X0076500Y0015400D03*
X0061500Y0015400D03*
X0061500Y0025400D03*
X0051500Y0025400D03*
X0051500Y0015400D03*
X0041500Y0015400D03*
X0041500Y0025400D03*
X0031500Y0025400D03*
X0031500Y0015400D03*
X0011500Y0015400D03*
X0011500Y0025400D03*
X0011500Y0035400D03*
X0011500Y0060400D03*
X0011500Y0070400D03*
D13*
X0076500Y0070400D03*
D14*
X0076500Y0090400D03*
D15*
X0076500Y0070400D02*
X0051500Y0095400D01*
X0049500Y0095400D01*
X0028500Y0095400D01*
X0021500Y0088400D01*
X0021500Y0060400D01*
X0011500Y0060400D01*
X0021500Y0060400D02*
X0021500Y0025400D01*
X0011500Y0025400D01*
X0011500Y0015400D02*
X0021500Y0015400D01*
X0031500Y0025400D01*
X0031500Y0015400D02*
X0041500Y0015400D01*
X0041500Y0025400D01*
X0051500Y0025400D02*
X0051500Y0015400D01*
X0051500Y0025400D02*
X0051500Y0035400D01*
X0076500Y0035400D01*
X0076500Y0070400D01*
X0061500Y0065400D02*
X0061500Y0075400D01*
X0051500Y0065400D02*
X0041500Y0065400D01*
X0031500Y0065400D02*
X0031500Y0075400D01*
X0061500Y0025400D02*
X0076500Y0025400D01*
D16*
X0083900Y0008000D02*
X0004100Y0008000D01*
X0004100Y0107800D01*
X0083900Y0107800D01*
X0083900Y0008000D01*
X0083900Y0008291D02*
X0004100Y0008291D01*
X0004100Y0009290D02*
X0083900Y0009290D01*
X0083900Y0010288D02*
X0077467Y0010288D01*
X0077718Y0010328D02*
X0078496Y0010581D01*
X0079225Y0010953D01*
X0079888Y0011434D01*
X0080466Y0012012D01*
X0080947Y0012675D01*
X0081319Y0013404D01*
X0081572Y0014182D01*
X0081686Y0014900D01*
X0077000Y0014900D01*
X0077000Y0015900D01*
X0081686Y0015900D01*
X0081572Y0016618D01*
X0081319Y0017396D01*
X0080947Y0018125D01*
X0080466Y0018788D01*
X0079888Y0019366D01*
X0079225Y0019847D01*
X0078788Y0020070D01*
X0079785Y0020483D01*
X0081417Y0022115D01*
X0082300Y0024246D01*
X0082300Y0026554D01*
X0081417Y0028685D01*
X0079785Y0030317D01*
X0079585Y0030400D01*
X0079785Y0030483D01*
X0081417Y0032115D01*
X0082300Y0034246D01*
X0082300Y0036554D01*
X0081417Y0038685D01*
X0079785Y0040317D01*
X0079600Y0040394D01*
X0079600Y0065352D01*
X0079814Y0065441D01*
X0081459Y0067086D01*
X0082350Y0069236D01*
X0082350Y0071564D01*
X0081459Y0073714D01*
X0079814Y0075359D01*
X0077664Y0076250D01*
X0075336Y0076250D01*
X0075123Y0076161D01*
X0054687Y0096598D01*
X0053951Y0098374D01*
X0052474Y0099851D01*
X0050544Y0100650D01*
X0048456Y0100650D01*
X0046526Y0099851D01*
X0045175Y0098500D01*
X0032825Y0098500D01*
X0031474Y0099851D01*
X0029544Y0100650D01*
X0027456Y0100650D01*
X0025526Y0099851D01*
X0024049Y0098374D01*
X0023250Y0096444D01*
X0023250Y0094534D01*
X0019744Y0091028D01*
X0018872Y0090156D01*
X0018400Y0089017D01*
X0018400Y0063500D01*
X0016494Y0063500D01*
X0016417Y0063685D01*
X0014785Y0065317D01*
X0013788Y0065730D01*
X0014225Y0065953D01*
X0014888Y0066434D01*
X0015466Y0067012D01*
X0015947Y0067675D01*
X0016319Y0068404D01*
X0016572Y0069182D01*
X0016686Y0069900D01*
X0012000Y0069900D01*
X0012000Y0070900D01*
X0011000Y0070900D01*
X0011000Y0075586D01*
X0010282Y0075472D01*
X0009504Y0075219D01*
X0008775Y0074847D01*
X0008112Y0074366D01*
X0007534Y0073788D01*
X0007053Y0073125D01*
X0006681Y0072396D01*
X0006428Y0071618D01*
X0006314Y0070900D01*
X0011000Y0070900D01*
X0011000Y0069900D01*
X0006314Y0069900D01*
X0006428Y0069182D01*
X0006681Y0068404D01*
X0007053Y0067675D01*
X0007534Y0067012D01*
X0008112Y0066434D01*
X0008775Y0065953D01*
X0009212Y0065730D01*
X0008215Y0065317D01*
X0006583Y0063685D01*
X0005700Y0061554D01*
X0005700Y0059246D01*
X0006583Y0057115D01*
X0008215Y0055483D01*
X0010346Y0054600D01*
X0012654Y0054600D01*
X0014785Y0055483D01*
X0016417Y0057115D01*
X0016494Y0057300D01*
X0018400Y0057300D01*
X0018400Y0028500D01*
X0016494Y0028500D01*
X0016417Y0028685D01*
X0014785Y0030317D01*
X0013788Y0030730D01*
X0014225Y0030953D01*
X0014888Y0031434D01*
X0015466Y0032012D01*
X0015947Y0032675D01*
X0016319Y0033404D01*
X0016572Y0034182D01*
X0016686Y0034900D01*
X0012000Y0034900D01*
X0012000Y0035900D01*
X0011000Y0035900D01*
X0011000Y0040586D01*
X0010282Y0040472D01*
X0009504Y0040219D01*
X0008775Y0039847D01*
X0008112Y0039366D01*
X0007534Y0038788D01*
X0007053Y0038125D01*
X0006681Y0037396D01*
X0006428Y0036618D01*
X0006314Y0035900D01*
X0011000Y0035900D01*
X0011000Y0034900D01*
X0006314Y0034900D01*
X0006428Y0034182D01*
X0006681Y0033404D01*
X0007053Y0032675D01*
X0007534Y0032012D01*
X0008112Y0031434D01*
X0008775Y0030953D01*
X0009212Y0030730D01*
X0008215Y0030317D01*
X0006583Y0028685D01*
X0005700Y0026554D01*
X0005700Y0024246D01*
X0006583Y0022115D01*
X0008215Y0020483D01*
X0008415Y0020400D01*
X0008215Y0020317D01*
X0006583Y0018685D01*
X0005700Y0016554D01*
X0005700Y0014246D01*
X0006583Y0012115D01*
X0008215Y0010483D01*
X0010346Y0009600D01*
X0012654Y0009600D01*
X0014785Y0010483D01*
X0016417Y0012115D01*
X0016494Y0012300D01*
X0022117Y0012300D01*
X0023256Y0012772D01*
X0025700Y0015216D01*
X0025700Y0014246D01*
X0026583Y0012115D01*
X0028215Y0010483D01*
X0030346Y0009600D01*
X0032654Y0009600D01*
X0034785Y0010483D01*
X0036417Y0012115D01*
X0036494Y0012300D01*
X0036506Y0012300D01*
X0036583Y0012115D01*
X0038215Y0010483D01*
X0040346Y0009600D01*
X0042654Y0009600D01*
X0044785Y0010483D01*
X0046417Y0012115D01*
X0046500Y0012315D01*
X0046583Y0012115D01*
X0048215Y0010483D01*
X0050346Y0009600D01*
X0052654Y0009600D01*
X0054785Y0010483D01*
X0056417Y0012115D01*
X0056830Y0013112D01*
X0057053Y0012675D01*
X0057534Y0012012D01*
X0058112Y0011434D01*
X0058775Y0010953D01*
X0059504Y0010581D01*
X0060282Y0010328D01*
X0061000Y0010214D01*
X0061000Y0014900D01*
X0062000Y0014900D01*
X0062000Y0015900D01*
X0066686Y0015900D01*
X0066572Y0016618D01*
X0066319Y0017396D01*
X0065947Y0018125D01*
X0065466Y0018788D01*
X0064888Y0019366D01*
X0064225Y0019847D01*
X0063788Y0020070D01*
X0064785Y0020483D01*
X0066417Y0022115D01*
X0066494Y0022300D01*
X0071506Y0022300D01*
X0071583Y0022115D01*
X0073215Y0020483D01*
X0074212Y0020070D01*
X0073775Y0019847D01*
X0073112Y0019366D01*
X0072534Y0018788D01*
X0072053Y0018125D01*
X0071681Y0017396D01*
X0071428Y0016618D01*
X0071314Y0015900D01*
X0076000Y0015900D01*
X0076000Y0014900D01*
X0077000Y0014900D01*
X0077000Y0010214D01*
X0077718Y0010328D01*
X0077000Y0010288D02*
X0076000Y0010288D01*
X0076000Y0010214D02*
X0076000Y0014900D01*
X0071314Y0014900D01*
X0071428Y0014182D01*
X0071681Y0013404D01*
X0072053Y0012675D01*
X0072534Y0012012D01*
X0073112Y0011434D01*
X0073775Y0010953D01*
X0074504Y0010581D01*
X0075282Y0010328D01*
X0076000Y0010214D01*
X0075533Y0010288D02*
X0062467Y0010288D01*
X0062718Y0010328D02*
X0062000Y0010214D01*
X0062000Y0014900D01*
X0066686Y0014900D01*
X0066572Y0014182D01*
X0066319Y0013404D01*
X0065947Y0012675D01*
X0065466Y0012012D01*
X0064888Y0011434D01*
X0064225Y0010953D01*
X0063496Y0010581D01*
X0062718Y0010328D01*
X0062000Y0010288D02*
X0061000Y0010288D01*
X0060533Y0010288D02*
X0054316Y0010288D01*
X0055589Y0011287D02*
X0058314Y0011287D01*
X0057335Y0012285D02*
X0056488Y0012285D01*
X0061000Y0012285D02*
X0062000Y0012285D01*
X0062000Y0011287D02*
X0061000Y0011287D01*
X0061000Y0013284D02*
X0062000Y0013284D01*
X0062000Y0014282D02*
X0061000Y0014282D01*
X0062000Y0015281D02*
X0076000Y0015281D01*
X0076000Y0014282D02*
X0077000Y0014282D01*
X0077000Y0013284D02*
X0076000Y0013284D01*
X0076000Y0012285D02*
X0077000Y0012285D01*
X0077000Y0011287D02*
X0076000Y0011287D01*
X0073314Y0011287D02*
X0064686Y0011287D01*
X0065665Y0012285D02*
X0072335Y0012285D01*
X0071742Y0013284D02*
X0066258Y0013284D01*
X0066588Y0014282D02*
X0071412Y0014282D01*
X0071374Y0016279D02*
X0066626Y0016279D01*
X0066357Y0017278D02*
X0071643Y0017278D01*
X0072162Y0018276D02*
X0065838Y0018276D01*
X0064979Y0019275D02*
X0073021Y0019275D01*
X0073720Y0020273D02*
X0064280Y0020273D01*
X0065574Y0021272D02*
X0072426Y0021272D01*
X0071518Y0022270D02*
X0066482Y0022270D01*
X0077000Y0015281D02*
X0083900Y0015281D01*
X0083900Y0016279D02*
X0081626Y0016279D01*
X0081357Y0017278D02*
X0083900Y0017278D01*
X0083900Y0018276D02*
X0080838Y0018276D01*
X0079979Y0019275D02*
X0083900Y0019275D01*
X0083900Y0020273D02*
X0079280Y0020273D01*
X0080574Y0021272D02*
X0083900Y0021272D01*
X0083900Y0022270D02*
X0081482Y0022270D01*
X0081895Y0023269D02*
X0083900Y0023269D01*
X0083900Y0024268D02*
X0082300Y0024268D01*
X0082300Y0025266D02*
X0083900Y0025266D01*
X0083900Y0026265D02*
X0082300Y0026265D01*
X0082006Y0027263D02*
X0083900Y0027263D01*
X0083900Y0028262D02*
X0081593Y0028262D01*
X0080842Y0029260D02*
X0083900Y0029260D01*
X0083900Y0030259D02*
X0079844Y0030259D01*
X0080560Y0031257D02*
X0083900Y0031257D01*
X0083900Y0032256D02*
X0081475Y0032256D01*
X0081889Y0033254D02*
X0083900Y0033254D01*
X0083900Y0034253D02*
X0082300Y0034253D01*
X0082300Y0035251D02*
X0083900Y0035251D01*
X0083900Y0036250D02*
X0082300Y0036250D01*
X0082012Y0037248D02*
X0083900Y0037248D01*
X0083900Y0038247D02*
X0081599Y0038247D01*
X0080857Y0039245D02*
X0083900Y0039245D01*
X0083900Y0040244D02*
X0079859Y0040244D01*
X0079600Y0041242D02*
X0083900Y0041242D01*
X0083900Y0042241D02*
X0079600Y0042241D01*
X0079600Y0043239D02*
X0083900Y0043239D01*
X0083900Y0044238D02*
X0079600Y0044238D01*
X0079600Y0045236D02*
X0083900Y0045236D01*
X0083900Y0046235D02*
X0079600Y0046235D01*
X0079600Y0047233D02*
X0083900Y0047233D01*
X0083900Y0048232D02*
X0079600Y0048232D01*
X0079600Y0049230D02*
X0083900Y0049230D01*
X0083900Y0050229D02*
X0079600Y0050229D01*
X0079600Y0051227D02*
X0083900Y0051227D01*
X0083900Y0052226D02*
X0079600Y0052226D01*
X0079600Y0053224D02*
X0083900Y0053224D01*
X0083900Y0054223D02*
X0079600Y0054223D01*
X0079600Y0055221D02*
X0083900Y0055221D01*
X0083900Y0056220D02*
X0079600Y0056220D01*
X0079600Y0057218D02*
X0083900Y0057218D01*
X0083900Y0058217D02*
X0079600Y0058217D01*
X0079600Y0059215D02*
X0083900Y0059215D01*
X0083900Y0060214D02*
X0079600Y0060214D01*
X0079600Y0061212D02*
X0083900Y0061212D01*
X0083900Y0062211D02*
X0079600Y0062211D01*
X0079600Y0063209D02*
X0083900Y0063209D01*
X0083900Y0064208D02*
X0079600Y0064208D01*
X0079600Y0065206D02*
X0083900Y0065206D01*
X0083900Y0066205D02*
X0080578Y0066205D01*
X0081508Y0067203D02*
X0083900Y0067203D01*
X0083900Y0068202D02*
X0081922Y0068202D01*
X0082335Y0069201D02*
X0083900Y0069201D01*
X0083900Y0070199D02*
X0082350Y0070199D01*
X0082350Y0071198D02*
X0083900Y0071198D01*
X0083900Y0072196D02*
X0082088Y0072196D01*
X0081674Y0073195D02*
X0083900Y0073195D01*
X0083900Y0074193D02*
X0080980Y0074193D01*
X0079982Y0075192D02*
X0083900Y0075192D01*
X0083900Y0076190D02*
X0077808Y0076190D01*
X0075192Y0076190D02*
X0075094Y0076190D01*
X0074095Y0077189D02*
X0083900Y0077189D01*
X0083900Y0078187D02*
X0073097Y0078187D01*
X0072098Y0079186D02*
X0083900Y0079186D01*
X0083900Y0080184D02*
X0071100Y0080184D01*
X0070101Y0081183D02*
X0083900Y0081183D01*
X0083900Y0082181D02*
X0069103Y0082181D01*
X0068104Y0083180D02*
X0083900Y0083180D01*
X0083900Y0084178D02*
X0067106Y0084178D01*
X0066107Y0085177D02*
X0074299Y0085177D01*
X0074325Y0085150D02*
X0071250Y0088225D01*
X0071250Y0090100D01*
X0076200Y0090100D01*
X0076200Y0090700D01*
X0076200Y0095650D01*
X0074325Y0095650D01*
X0071250Y0092575D01*
X0071250Y0090700D01*
X0076200Y0090700D01*
X0076800Y0090700D01*
X0076800Y0095650D01*
X0078675Y0095650D01*
X0081750Y0092575D01*
X0081750Y0090700D01*
X0076800Y0090700D01*
X0076800Y0090100D01*
X0081750Y0090100D01*
X0081750Y0088225D01*
X0078675Y0085150D01*
X0076800Y0085150D01*
X0076800Y0090100D01*
X0076200Y0090100D01*
X0076200Y0085150D01*
X0074325Y0085150D01*
X0073300Y0086175D02*
X0065109Y0086175D01*
X0064110Y0087174D02*
X0072302Y0087174D01*
X0071303Y0088172D02*
X0063112Y0088172D01*
X0062113Y0089171D02*
X0071250Y0089171D01*
X0071250Y0091168D02*
X0065844Y0091168D01*
X0065426Y0090750D02*
X0068150Y0093474D01*
X0068150Y0095100D01*
X0063800Y0095100D01*
X0063800Y0095700D01*
X0068150Y0095700D01*
X0068150Y0097326D01*
X0065426Y0100050D01*
X0063800Y0100050D01*
X0063800Y0095700D01*
X0063200Y0095700D01*
X0063200Y0100050D01*
X0061574Y0100050D01*
X0058850Y0097326D01*
X0058850Y0095700D01*
X0063200Y0095700D01*
X0063200Y0095100D01*
X0063800Y0095100D01*
X0063800Y0090750D01*
X0065426Y0090750D01*
X0066842Y0092166D02*
X0071250Y0092166D01*
X0071840Y0093165D02*
X0067841Y0093165D01*
X0068150Y0094163D02*
X0072839Y0094163D01*
X0073837Y0095162D02*
X0063800Y0095162D01*
X0063200Y0095162D02*
X0056122Y0095162D01*
X0055124Y0096160D02*
X0058850Y0096160D01*
X0058850Y0097159D02*
X0054454Y0097159D01*
X0054040Y0098157D02*
X0059681Y0098157D01*
X0060680Y0099156D02*
X0053169Y0099156D01*
X0051741Y0100154D02*
X0083900Y0100154D01*
X0083900Y0099156D02*
X0066320Y0099156D01*
X0067319Y0098157D02*
X0083900Y0098157D01*
X0083900Y0097159D02*
X0068150Y0097159D01*
X0068150Y0096160D02*
X0083900Y0096160D01*
X0083900Y0095162D02*
X0079163Y0095162D01*
X0080161Y0094163D02*
X0083900Y0094163D01*
X0083900Y0093165D02*
X0081160Y0093165D01*
X0081750Y0092166D02*
X0083900Y0092166D01*
X0083900Y0091168D02*
X0081750Y0091168D01*
X0081750Y0089171D02*
X0083900Y0089171D01*
X0083900Y0090169D02*
X0076800Y0090169D01*
X0076200Y0090169D02*
X0061115Y0090169D01*
X0061574Y0090750D02*
X0063200Y0090750D01*
X0063200Y0095100D01*
X0058850Y0095100D01*
X0058850Y0093474D01*
X0061574Y0090750D01*
X0061156Y0091168D02*
X0060116Y0091168D01*
X0060158Y0092166D02*
X0059118Y0092166D01*
X0059159Y0093165D02*
X0058119Y0093165D01*
X0058850Y0094163D02*
X0057121Y0094163D01*
X0063200Y0094163D02*
X0063800Y0094163D01*
X0063800Y0093165D02*
X0063200Y0093165D01*
X0063200Y0092166D02*
X0063800Y0092166D01*
X0063800Y0091168D02*
X0063200Y0091168D01*
X0063200Y0096160D02*
X0063800Y0096160D01*
X0063800Y0097159D02*
X0063200Y0097159D01*
X0063200Y0098157D02*
X0063800Y0098157D01*
X0063800Y0099156D02*
X0063200Y0099156D01*
X0076200Y0095162D02*
X0076800Y0095162D01*
X0076800Y0094163D02*
X0076200Y0094163D01*
X0076200Y0093165D02*
X0076800Y0093165D01*
X0076800Y0092166D02*
X0076200Y0092166D01*
X0076200Y0091168D02*
X0076800Y0091168D01*
X0076800Y0089171D02*
X0076200Y0089171D01*
X0076200Y0088172D02*
X0076800Y0088172D01*
X0076800Y0087174D02*
X0076200Y0087174D01*
X0076200Y0086175D02*
X0076800Y0086175D01*
X0076800Y0085177D02*
X0076200Y0085177D01*
X0078701Y0085177D02*
X0083900Y0085177D01*
X0083900Y0086175D02*
X0079700Y0086175D01*
X0080698Y0087174D02*
X0083900Y0087174D01*
X0083900Y0088172D02*
X0081697Y0088172D01*
X0083900Y0101153D02*
X0004100Y0101153D01*
X0004100Y0102151D02*
X0083900Y0102151D01*
X0083900Y0103150D02*
X0004100Y0103150D01*
X0004100Y0104148D02*
X0083900Y0104148D01*
X0083900Y0105147D02*
X0004100Y0105147D01*
X0004100Y0106145D02*
X0083900Y0106145D01*
X0083900Y0107144D02*
X0004100Y0107144D01*
X0004100Y0100154D02*
X0026259Y0100154D01*
X0024831Y0099156D02*
X0017320Y0099156D01*
X0016426Y0100050D02*
X0014800Y0100050D01*
X0014800Y0095700D01*
X0019150Y0095700D01*
X0019150Y0097326D01*
X0016426Y0100050D01*
X0014800Y0099156D02*
X0014200Y0099156D01*
X0014200Y0100050D02*
X0012574Y0100050D01*
X0009850Y0097326D01*
X0009850Y0095700D01*
X0014200Y0095700D01*
X0014200Y0100050D01*
X0014200Y0098157D02*
X0014800Y0098157D01*
X0014800Y0097159D02*
X0014200Y0097159D01*
X0014200Y0096160D02*
X0014800Y0096160D01*
X0014800Y0095700D02*
X0014200Y0095700D01*
X0014200Y0095100D01*
X0014800Y0095100D01*
X0014800Y0095700D01*
X0014800Y0095162D02*
X0023250Y0095162D01*
X0023250Y0096160D02*
X0019150Y0096160D01*
X0019150Y0097159D02*
X0023546Y0097159D01*
X0023960Y0098157D02*
X0018319Y0098157D01*
X0019150Y0095100D02*
X0014800Y0095100D01*
X0014800Y0090750D01*
X0016426Y0090750D01*
X0019150Y0093474D01*
X0019150Y0095100D01*
X0019150Y0094163D02*
X0022879Y0094163D01*
X0021881Y0093165D02*
X0018841Y0093165D01*
X0017842Y0092166D02*
X0020882Y0092166D01*
X0019884Y0091168D02*
X0016844Y0091168D01*
X0014800Y0091168D02*
X0014200Y0091168D01*
X0014200Y0090750D02*
X0014200Y0095100D01*
X0009850Y0095100D01*
X0009850Y0093474D01*
X0012574Y0090750D01*
X0014200Y0090750D01*
X0014200Y0092166D02*
X0014800Y0092166D01*
X0014800Y0093165D02*
X0014200Y0093165D01*
X0014200Y0094163D02*
X0014800Y0094163D01*
X0014200Y0095162D02*
X0004100Y0095162D01*
X0004100Y0096160D02*
X0009850Y0096160D01*
X0009850Y0097159D02*
X0004100Y0097159D01*
X0004100Y0098157D02*
X0010681Y0098157D01*
X0011680Y0099156D02*
X0004100Y0099156D01*
X0004100Y0094163D02*
X0009850Y0094163D01*
X0010159Y0093165D02*
X0004100Y0093165D01*
X0004100Y0092166D02*
X0011158Y0092166D01*
X0012156Y0091168D02*
X0004100Y0091168D01*
X0004100Y0090169D02*
X0018885Y0090169D01*
X0018464Y0089171D02*
X0004100Y0089171D01*
X0004100Y0088172D02*
X0018400Y0088172D01*
X0018400Y0087174D02*
X0004100Y0087174D01*
X0004100Y0086175D02*
X0018400Y0086175D01*
X0018400Y0085177D02*
X0004100Y0085177D01*
X0004100Y0084178D02*
X0018400Y0084178D01*
X0018400Y0083180D02*
X0004100Y0083180D01*
X0004100Y0082181D02*
X0018400Y0082181D01*
X0018400Y0081183D02*
X0004100Y0081183D01*
X0004100Y0080184D02*
X0018400Y0080184D01*
X0018400Y0079186D02*
X0004100Y0079186D01*
X0004100Y0078187D02*
X0018400Y0078187D01*
X0018400Y0077189D02*
X0004100Y0077189D01*
X0004100Y0076190D02*
X0018400Y0076190D01*
X0018400Y0075192D02*
X0013550Y0075192D01*
X0013496Y0075219D02*
X0012718Y0075472D01*
X0012000Y0075586D01*
X0012000Y0070900D01*
X0016686Y0070900D01*
X0016572Y0071618D01*
X0016319Y0072396D01*
X0015947Y0073125D01*
X0015466Y0073788D01*
X0014888Y0074366D01*
X0014225Y0074847D01*
X0013496Y0075219D01*
X0015061Y0074193D02*
X0018400Y0074193D01*
X0018400Y0073195D02*
X0015897Y0073195D01*
X0016384Y0072196D02*
X0018400Y0072196D01*
X0018400Y0071198D02*
X0016638Y0071198D01*
X0016575Y0069201D02*
X0018400Y0069201D01*
X0018400Y0070199D02*
X0012000Y0070199D01*
X0012000Y0071198D02*
X0011000Y0071198D01*
X0011000Y0072196D02*
X0012000Y0072196D01*
X0012000Y0073195D02*
X0011000Y0073195D01*
X0011000Y0074193D02*
X0012000Y0074193D01*
X0012000Y0075192D02*
X0011000Y0075192D01*
X0009450Y0075192D02*
X0004100Y0075192D01*
X0004100Y0074193D02*
X0007939Y0074193D01*
X0007103Y0073195D02*
X0004100Y0073195D01*
X0004100Y0072196D02*
X0006616Y0072196D01*
X0006362Y0071198D02*
X0004100Y0071198D01*
X0004100Y0070199D02*
X0011000Y0070199D01*
X0008427Y0066205D02*
X0004100Y0066205D01*
X0004100Y0067203D02*
X0007395Y0067203D01*
X0006784Y0068202D02*
X0004100Y0068202D01*
X0004100Y0069201D02*
X0006425Y0069201D01*
X0008104Y0065206D02*
X0004100Y0065206D01*
X0004100Y0064208D02*
X0007106Y0064208D01*
X0006386Y0063209D02*
X0004100Y0063209D01*
X0004100Y0062211D02*
X0005972Y0062211D01*
X0005700Y0061212D02*
X0004100Y0061212D01*
X0004100Y0060214D02*
X0005700Y0060214D01*
X0005713Y0059215D02*
X0004100Y0059215D01*
X0004100Y0058217D02*
X0006126Y0058217D01*
X0006540Y0057218D02*
X0004100Y0057218D01*
X0004100Y0056220D02*
X0007478Y0056220D01*
X0008846Y0055221D02*
X0004100Y0055221D01*
X0004100Y0054223D02*
X0018400Y0054223D01*
X0018400Y0055221D02*
X0014154Y0055221D01*
X0015522Y0056220D02*
X0018400Y0056220D01*
X0018400Y0057218D02*
X0016460Y0057218D01*
X0018400Y0053224D02*
X0004100Y0053224D01*
X0004100Y0052226D02*
X0018400Y0052226D01*
X0018400Y0051227D02*
X0004100Y0051227D01*
X0004100Y0050229D02*
X0018400Y0050229D01*
X0018400Y0049230D02*
X0004100Y0049230D01*
X0004100Y0048232D02*
X0018400Y0048232D01*
X0018400Y0047233D02*
X0004100Y0047233D01*
X0004100Y0046235D02*
X0018400Y0046235D01*
X0018400Y0045236D02*
X0004100Y0045236D01*
X0004100Y0044238D02*
X0018400Y0044238D01*
X0018400Y0043239D02*
X0004100Y0043239D01*
X0004100Y0042241D02*
X0018400Y0042241D01*
X0018400Y0041242D02*
X0004100Y0041242D01*
X0004100Y0040244D02*
X0009580Y0040244D01*
X0011000Y0040244D02*
X0012000Y0040244D01*
X0012000Y0040586D02*
X0012000Y0035900D01*
X0016686Y0035900D01*
X0016572Y0036618D01*
X0016319Y0037396D01*
X0015947Y0038125D01*
X0015466Y0038788D01*
X0014888Y0039366D01*
X0014225Y0039847D01*
X0013496Y0040219D01*
X0012718Y0040472D01*
X0012000Y0040586D01*
X0012000Y0039245D02*
X0011000Y0039245D01*
X0011000Y0038247D02*
X0012000Y0038247D01*
X0012000Y0037248D02*
X0011000Y0037248D01*
X0011000Y0036250D02*
X0012000Y0036250D01*
X0012000Y0035251D02*
X0018400Y0035251D01*
X0018400Y0034253D02*
X0016583Y0034253D01*
X0016243Y0033254D02*
X0018400Y0033254D01*
X0018400Y0032256D02*
X0015643Y0032256D01*
X0014645Y0031257D02*
X0018400Y0031257D01*
X0018400Y0030259D02*
X0014844Y0030259D01*
X0015842Y0029260D02*
X0018400Y0029260D01*
X0018400Y0036250D02*
X0016630Y0036250D01*
X0016367Y0037248D02*
X0018400Y0037248D01*
X0018400Y0038247D02*
X0015859Y0038247D01*
X0015009Y0039245D02*
X0018400Y0039245D01*
X0018400Y0040244D02*
X0013420Y0040244D01*
X0011000Y0035251D02*
X0004100Y0035251D01*
X0004100Y0034253D02*
X0006417Y0034253D01*
X0006757Y0033254D02*
X0004100Y0033254D01*
X0004100Y0032256D02*
X0007357Y0032256D01*
X0008355Y0031257D02*
X0004100Y0031257D01*
X0004100Y0030259D02*
X0008156Y0030259D01*
X0007158Y0029260D02*
X0004100Y0029260D01*
X0004100Y0028262D02*
X0006407Y0028262D01*
X0005994Y0027263D02*
X0004100Y0027263D01*
X0004100Y0026265D02*
X0005700Y0026265D01*
X0005700Y0025266D02*
X0004100Y0025266D01*
X0004100Y0024268D02*
X0005700Y0024268D01*
X0006105Y0023269D02*
X0004100Y0023269D01*
X0004100Y0022270D02*
X0006518Y0022270D01*
X0007426Y0021272D02*
X0004100Y0021272D01*
X0004100Y0020273D02*
X0008171Y0020273D01*
X0007173Y0019275D02*
X0004100Y0019275D01*
X0004100Y0018276D02*
X0006414Y0018276D01*
X0006000Y0017278D02*
X0004100Y0017278D01*
X0004100Y0016279D02*
X0005700Y0016279D01*
X0005700Y0015281D02*
X0004100Y0015281D01*
X0004100Y0014282D02*
X0005700Y0014282D01*
X0006099Y0013284D02*
X0004100Y0013284D01*
X0004100Y0012285D02*
X0006512Y0012285D01*
X0007411Y0011287D02*
X0004100Y0011287D01*
X0004100Y0010288D02*
X0008684Y0010288D01*
X0014316Y0010288D02*
X0028684Y0010288D01*
X0027411Y0011287D02*
X0015589Y0011287D01*
X0016488Y0012285D02*
X0026512Y0012285D01*
X0026099Y0013284D02*
X0023768Y0013284D01*
X0024766Y0014282D02*
X0025700Y0014282D01*
X0034316Y0010288D02*
X0038684Y0010288D01*
X0037411Y0011287D02*
X0035589Y0011287D01*
X0036488Y0012285D02*
X0036512Y0012285D01*
X0044316Y0010288D02*
X0048684Y0010288D01*
X0047411Y0011287D02*
X0045589Y0011287D01*
X0046488Y0012285D02*
X0046512Y0012285D01*
X0079686Y0011287D02*
X0083900Y0011287D01*
X0083900Y0012285D02*
X0080665Y0012285D01*
X0081258Y0013284D02*
X0083900Y0013284D01*
X0083900Y0014282D02*
X0081588Y0014282D01*
X0045831Y0099156D02*
X0032169Y0099156D01*
X0030741Y0100154D02*
X0047259Y0100154D01*
X0018400Y0068202D02*
X0016216Y0068202D01*
X0015605Y0067203D02*
X0018400Y0067203D01*
X0018400Y0066205D02*
X0014573Y0066205D01*
X0014896Y0065206D02*
X0018400Y0065206D01*
X0018400Y0064208D02*
X0015894Y0064208D01*
X0007991Y0039245D02*
X0004100Y0039245D01*
X0004100Y0038247D02*
X0007141Y0038247D01*
X0006633Y0037248D02*
X0004100Y0037248D01*
X0004100Y0036250D02*
X0006370Y0036250D01*
M02*
